<svg width="1366" height="17" viewBox="0 0 1366 17" fill="none" xmlns="http://www.w3.org/2000/svg">
<path d="M1366 0C1354.6 0 1354.6 5.94703 1343.2 5.94703C1331.8 5.94703 1331.8 0 1320.4 0C1309 0 1309 5.94703 1297.63 5.94703C1286.23 5.94703 1286.23 0 1274.85 0C1263.45 0 1263.45 5.94703 1252.08 5.94703C1240.7 5.94703 1240.7 0 1229.3 0C1217.93 0 1217.93 5.94703 1206.53 5.94703C1195.15 5.94703 1195.15 0 1183.75 0C1172.38 0 1172.38 5.94703 1160.98 5.94703C1149.58 5.94703 1149.58 0 1138.2 0C1126.83 0 1126.83 5.94703 1115.43 5.94703C1104.05 5.94703 1104.05 0 1092.65 0C1081.28 0 1081.28 5.94703 1069.88 5.94703C1058.5 5.94703 1058.5 0 1047.1 0C1035.73 0 1035.73 5.94703 1024.33 5.94703C1012.95 5.94703 1012.95 0 1001.55 0C990.176 0 990.176 5.94703 978.776 5.94703C967.401 5.94703 967.401 0 956.001 0C944.626 0 944.626 5.94703 933.226 5.94703C921.851 5.94703 921.851 0 910.476 0C899.101 0 899.101 5.94703 887.701 5.94703C876.326 5.94703 876.326 0 864.951 0C853.576 0 853.576 5.94703 842.176 5.94703C830.801 5.94703 830.801 0 819.401 0C808.026 0 808.026 5.94703 796.626 5.94703C785.251 5.94703 785.251 0 773.851 0C762.476 0 762.476 5.94703 751.076 5.94703C739.701 5.94703 739.701 0 728.302 0C716.926 0 716.926 5.94703 705.527 5.94703C694.152 5.94703 694.152 0 682.752 0C671.377 0 671.377 5.94703 659.977 5.94703C648.602 5.94703 648.602 0 637.202 0C625.827 0 625.827 5.94703 614.427 5.94703C603.052 5.94703 603.052 0 591.652 0C580.277 0 580.277 5.94703 568.877 5.94703C557.502 5.94703 557.502 0 546.102 0C534.727 0 534.727 5.94703 523.327 5.94703C511.952 5.94703 511.952 0 500.552 0C489.177 0 489.177 5.94703 477.802 5.94703C466.427 5.94703 466.427 0 455.027 0C443.652 0 443.652 5.94703 432.252 5.94703C420.877 5.94703 420.877 0 409.502 0C398.127 0 398.127 5.94703 386.752 5.94703C375.377 5.94703 375.377 0 363.977 0C352.602 0 352.602 5.94703 341.227 5.94703C329.852 5.94703 329.852 0 318.477 0C307.102 0 307.102 5.94703 295.727 5.94703C284.352 5.94703 284.352 0 272.952 0C261.577 0 261.577 5.94703 250.202 5.94703C238.975 5.94703 238.975 0 227.6 0C216.225 0 216.225 5.94703 204.85 5.94703C193.45 5.94703 193.45 0 182.075 0C170.7 0 170.7 5.94703 159.3 5.94703C147.925 5.94703 147.925 0 136.55 0C125.175 0 125.175 5.94703 113.8 5.94703C102.425 5.94703 102.425 0 91.0253 0C79.6502 0 79.6502 5.94703 68.2752 5.94703C56.9001 5.94703 56.9001 0 45.5002 0C34.1252 0 34.1252 5.94703 22.7501 5.94703C11.3751 5.94703 11.3751 0 0 0V17H1366V0Z" fill="#E5F7F9"/>
</svg>
