<svg width="1366" height="17" viewBox="0 0 1366 17" fill="none" xmlns="http://www.w3.org/2000/svg">
<path d="M-8.58307e-06 17C11.3999 17 11.3999 11.053 22.7998 11.053C34.1996 11.053 34.1996 17 45.5995 17C56.9994 17 56.9995 11.053 68.3746 11.053C79.7745 11.053 79.7744 17 91.1495 17C102.549 17 102.549 11.053 113.924 11.053C125.299 11.053 125.299 17 136.699 17C148.074 17 148.074 11.053 159.474 11.053C170.849 11.053 170.849 17 182.249 17C193.624 17 193.624 11.053 205.024 11.053C216.424 11.053 216.424 17 227.799 17C239.174 17 239.174 11.053 250.574 11.053C261.949 11.053 261.949 17 273.349 17C284.724 17 284.724 11.053 296.124 11.053C307.499 11.053 307.499 17 318.899 17C330.274 17 330.274 11.053 341.674 11.053C353.049 11.053 353.049 17 364.449 17C375.824 17 375.824 11.053 387.224 11.053C398.599 11.053 398.599 17 409.999 17C421.374 17 421.374 11.053 432.774 11.053C444.149 11.053 444.149 17 455.524 17C466.899 17 466.899 11.053 478.299 11.053C489.674 11.053 489.674 17 501.049 17C512.424 17 512.424 11.053 523.824 11.053C535.199 11.053 535.199 17 546.599 17C557.974 17 557.974 11.053 569.374 11.053C580.749 11.053 580.749 17 592.149 17C603.524 17 603.524 11.053 614.924 11.053C626.299 11.053 626.299 17 637.698 17C649.074 17 649.074 11.053 660.473 11.053C671.848 11.053 671.848 17 683.248 17C694.623 17 694.623 11.053 706.023 11.053C717.398 11.053 717.398 17 728.798 17C740.173 17 740.173 11.053 751.573 11.053C762.948 11.053 762.948 17 774.348 17C785.723 17 785.723 11.053 797.123 11.053C808.498 11.053 808.498 17 819.898 17C831.273 17 831.273 11.053 842.673 11.053C854.048 11.053 854.048 17 865.448 17C876.823 17 876.823 11.053 888.198 11.053C899.573 11.053 899.573 17 910.973 17C922.348 17 922.348 11.053 933.748 11.053C945.123 11.053 945.123 17 956.498 17C967.873 17 967.873 11.053 979.248 11.053C990.623 11.053 990.623 17 1002.02 17C1013.4 17 1013.4 11.053 1024.77 11.053C1036.15 11.053 1036.15 17 1047.52 17C1058.9 17 1058.9 11.053 1070.27 11.053C1081.65 11.053 1081.65 17 1093.05 17C1104.42 17 1104.42 11.053 1115.8 11.053C1127.02 11.053 1127.02 17 1138.4 17C1149.77 17 1149.77 11.053 1161.15 11.053C1172.55 11.053 1172.55 17 1183.92 17C1195.3 17 1195.3 11.053 1206.7 11.053C1218.07 11.053 1218.07 17 1229.45 17C1240.82 17 1240.82 11.053 1252.2 11.053C1263.57 11.053 1263.57 17 1274.97 17C1286.35 17 1286.35 11.053 1297.72 11.053C1309.1 11.053 1309.1 17 1320.5 17C1331.87 17 1331.87 11.053 1343.25 11.053C1354.62 11.053 1354.62 17 1366 17V-2.11379e-07L-8.58307e-06 -2.11379e-07V17Z" fill="#E5F7F9"/>
</svg>
