<svg width="158" height="310" viewBox="0 0 158 310" fill="none" xmlns="http://www.w3.org/2000/svg">
<path d="M-86.7844 260.904C-102.049 250.644 -110.404 242.538 -118.924 228.117C-137.405 196.827 -116.656 187.052 -105.261 184.822C-80.7401 180.03 -126.285 143.679 -100.031 125.297C-79.4261 110.871 -60.9535 121.352 -48.3226 113.747C-30.0107 102.726 -44.1259 89.5133 -35.388 75.6014C-17.1711 46.6007 6.44714 80.0668 19.3645 59.6981C32.2857 39.3338 53.545 17.1654 69.9031 28.1591C86.2568 39.1566 73.7191 67.1921 59.7124 86.8239C45.7056 106.456 77.5136 110.987 65.6078 143.496C57.2084 166.415 24.2663 151.529 20.9511 172.631C18.6626 187.193 49.5135 197.553 43.9019 222.056C36.755 253.287 -14.1086 224.825 -9.30461 249.329C-7.07192 260.721 -8.32031 283.607 -44.2864 278.291C-60.8581 275.846 -71.52 271.165 -86.7844 260.904Z" fill="#24C6D0"/>
<path d="M-80.8723 254.352C-80.9405 254.272 -80.9515 254.151 -80.8896 254.052L61.1062 40.7934C61.1813 40.6833 61.3374 40.65 61.4475 40.725C61.5658 40.8007 61.5907 40.9561 61.5155 41.0662L-80.4803 254.325C-80.5555 254.435 -80.7116 254.469 -80.8217 254.394C-80.8375 254.384 -80.8571 254.37 -80.8723 254.352Z" fill="white"/>
<path d="M3.13157 128.188C3.12399 128.179 3.11641 128.17 3.10949 128.153L-21.7383 87.4839C-21.8077 87.3665 -21.7748 87.2157 -21.6573 87.1462C-21.5398 87.0767 -21.3896 87.1176 -21.3196 87.2268L3.52819 127.896C3.59755 128.014 3.56471 128.164 3.44718 128.234C3.34613 128.305 3.21115 128.282 3.13157 128.188Z" fill="white"/>
<path d="M12.7852 112.889C12.7777 112.88 12.7701 112.872 12.7625 112.863L-7.63 80.0701C-7.7038 79.9564 -7.66651 79.8019 -7.55277 79.7279C-7.43903 79.654 -7.28067 79.6955 -7.2151 79.8085L13.1774 112.601C13.2512 112.715 13.2139 112.869 13.1002 112.943C12.9998 113.006 12.8648 112.983 12.7852 112.889Z" fill="white"/>
<path d="M42.1513 69.5867C42.1021 69.5289 42.0833 69.4528 42.0981 69.3711L48.5032 39.8395C48.5347 39.7051 48.6618 39.6198 48.7961 39.6512C48.9304 39.6825 49.0156 39.8095 48.9841 39.9438L42.579 69.4754C42.5475 69.6097 42.4204 69.695 42.2861 69.6637C42.2284 69.6591 42.1854 69.6267 42.1513 69.5867Z" fill="white"/>
<path d="M27.0119 92.3254C27.0005 92.3121 26.9891 92.2988 26.9822 92.2816L18.2564 76.4472C18.1915 76.326 18.2326 76.1759 18.3539 76.1108C18.4752 76.0458 18.6253 76.0866 18.6902 76.2079L27.4161 92.0423C27.481 92.1635 27.4399 92.3136 27.3186 92.3787C27.2144 92.4368 27.0877 92.4143 27.0119 92.3254Z" fill="white"/>
<path d="M-53.2954 212.936C-53.3371 212.887 -53.3609 212.823 -53.3512 212.753C-53.3362 212.617 -53.2204 212.519 -53.0841 212.525L16.0483 218.521C16.1839 218.536 16.2862 218.656 16.2756 218.788C16.2606 218.923 16.1449 219.022 16.0086 219.015L-53.1238 213.02C-53.1942 213.018 -53.2537 212.985 -53.2954 212.936Z" fill="white"/>
<path d="M-35.1341 185.61C-35.1758 185.561 -35.1997 185.497 -35.19 185.427C-35.1749 185.291 -35.0592 185.193 -34.9191 185.204L0.342812 188.341C0.47845 188.356 0.576976 188.472 0.565732 188.612C0.550698 188.748 0.434966 188.846 0.294877 188.835L-34.967 185.697C-35.0368 185.688 -35.0962 185.654 -35.1341 185.61Z" fill="white"/>
<path d="M-21.8927 166.063C-21.9231 166.027 -21.9483 165.98 -21.9525 165.929C-21.9667 165.796 -21.8699 165.675 -21.7316 165.657L3.56802 162.887C3.70185 162.873 3.82643 162.974 3.84057 163.108C3.85471 163.242 3.75791 163.362 3.61963 163.38L-21.68 166.15C-21.7593 166.156 -21.8435 166.12 -21.8927 166.063Z" fill="white"/>
<path d="M-3.49795 138.253C-3.53964 138.204 -3.56352 138.14 -3.55756 138.066C-3.54253 137.931 -3.41857 137.833 -3.28673 137.843L39.6524 142.296C39.788 142.311 39.8859 142.435 39.8753 142.566C39.8603 142.702 39.7363 142.8 39.6045 142.79L-3.33465 138.337C-3.40058 138.331 -3.46006 138.298 -3.49795 138.253Z" fill="white"/>
<path d="M8.60569 120.275C8.57158 120.235 8.54704 120.179 8.54788 120.117C8.54643 119.98 8.65524 119.864 8.7922 119.862L46.7897 119.294C46.9266 119.293 47.0379 119.405 47.04 119.534C47.0414 119.671 46.9326 119.786 46.7957 119.788L8.79816 120.356C8.71889 120.363 8.65116 120.328 8.60569 120.275Z" fill="white"/>
<path d="M21.9337 99.9551C21.8996 99.9151 21.8826 99.8681 21.8746 99.8136C21.8649 99.676 21.9655 99.5596 22.0993 99.5453L42.4175 97.8292C42.5551 97.8194 42.6714 97.9198 42.6856 98.0536C42.6953 98.1912 42.5947 98.3076 42.4609 98.3219L22.1427 100.038C22.0589 100.048 21.983 100.013 21.9337 99.9551Z" fill="white"/>
<path d="M31.7447 85.3817C31.7258 85.3595 31.7113 85.3335 31.7012 85.3037C31.6535 85.1755 31.7231 85.0318 31.8551 84.9883L51.3226 78.0641C51.4509 78.0162 51.5901 78.0894 51.6341 78.2131C51.6818 78.3412 51.6122 78.485 51.4802 78.5284L32.0127 85.4526C31.9143 85.4905 31.8092 85.4573 31.7447 85.3817Z" fill="white"/>
<path d="M47.1588 62.0635C47.1398 62.0413 47.1215 62.0108 47.1077 61.9766C47.0682 61.8491 47.1378 61.7053 47.2691 61.6701L60.8661 57.3709C60.9937 57.3312 61.1374 57.4006 61.1724 57.5319C61.212 57.6594 61.1424 57.8032 61.011 57.8384L47.414 62.1376C47.3245 62.1678 47.2232 62.1391 47.1588 62.0635Z" fill="white"/>
</svg>
