<svg width="55" height="262" viewBox="0 0 55 262" fill="none" xmlns="http://www.w3.org/2000/svg">
<path d="M81.2905 208.138C81.2905 208.138 61.354 208.465 52.2824 198.587C43.2108 188.708 42.4398 176.694 52.9717 180.379C72.9725 187.369 81.2905 208.138 81.2905 208.138Z" fill="#3FBEA9"/>
<path d="M74.6254 156.873C74.6254 156.873 56.3829 164.933 44.1861 159.364C31.9894 153.791 26.6212 143.023 37.7548 142.321C58.9005 140.976 74.6254 156.873 74.6254 156.873Z" fill="#3FBEA9"/>
<path d="M56.4705 126.664C56.4705 126.664 72.1779 116.095 73.8894 103.473C75.6009 90.8515 69.6953 81.084 63.4918 89.6642C51.6981 105.977 56.4705 126.664 56.4705 126.664Z" fill="#3FBEA9"/>
<path d="M56.4939 126.646C56.4939 126.646 40.1732 133.858 29.2615 128.875C18.3499 123.891 13.5483 114.258 23.5078 113.627C42.4279 112.422 56.4939 126.646 56.4939 126.646Z" fill="#3FBEA9"/>
<path d="M37.8661 99.4434C37.8661 99.4434 54.6133 90.6175 57.6683 78.259C60.7233 65.8946 55.8984 55.5481 48.807 63.4147C35.3368 78.3643 37.8661 99.4434 37.8661 99.4434Z" fill="#3FBEA9"/>
<path d="M37.8892 99.4317C37.8892 99.4317 20.8908 104.854 10.575 98.724C0.25922 92.5944 -3.48508 82.5052 6.48609 82.9439C25.4296 83.7803 37.8892 99.4317 37.8892 99.4317Z" fill="#3FBEA9"/>
<path d="M27.0594 65.7426C27.0594 65.7426 41.3181 63.0112 46.3183 54.624C51.3185 46.2368 50.086 37.5571 43.1289 41.7507C29.9041 49.711 27.0594 65.7426 27.0594 65.7426Z" fill="#3FBEA9"/>
<path d="M27.153 65.7369C27.153 65.7369 12.0122 66.0293 5.20703 58.6189C-1.60397 51.2026 -2.0888 42.1662 5.87295 44.9151C21.0079 50.1322 27.153 65.7369 27.153 65.7369Z" fill="#3FBEA9"/>
<path d="M28.2687 34.2818C28.2687 34.2818 37.8894 28.0821 39.0752 20.4728C40.261 12.8635 36.8087 6.88601 32.9534 12.0037C25.6342 21.7244 28.2687 34.2818 28.2687 34.2818Z" fill="#3FBEA9"/>
<path d="M19.1385 17.5074C19.1385 17.5074 20.3593 9.74022 18.1455 4.4295C15.4 -2.15626 8.1451 -1.40176 9.30753 6.71639C10.6043 15.7236 19.1385 17.5074 19.1385 17.5074Z" fill="#3FBEA9"/>
<path d="M28.4206 34.2058C28.4206 34.2058 18.4436 38.4579 11.9364 35.3639C5.4291 32.264 2.6895 26.3918 8.71777 26.0818C20.161 25.4852 28.4206 34.2058 28.4206 34.2058Z" fill="#3FBEA9"/>
<path d="M74.0999 261.438L73.1478 261.21C75.1572 252.881 76.8044 244.587 78.0487 236.551C79.5557 226.807 80.4787 217.35 80.7941 208.448C81.1679 197.902 80.7182 188.345 79.4272 179.233C77.9902 169.114 75.496 159.85 72.0029 151.691C68.1943 142.789 62.6684 135.525 56.8154 127.828C55.9917 126.74 55.1623 125.652 54.3328 124.552C48.7426 117.124 41.5636 107.222 35.6288 96.4664C31.5983 89.1554 29.1508 83.3592 27.6963 77.6625C26.5747 73.2758 26.1834 68.9945 26.5338 64.9413C26.7441 62.4965 27.2465 60.0751 27.7255 57.7356C27.889 56.9401 28.0526 56.1447 28.2045 55.3492C30.3891 43.9909 28.6542 32.4336 23.4496 23.637C22.0652 21.2975 20.4472 19.2445 18.6539 17.5308L19.3315 16.8173C21.1949 18.5895 22.8655 20.7184 24.2966 23.134C29.6239 32.1295 31.3997 43.9382 29.1741 55.5306C29.0223 56.3318 28.8529 57.1273 28.6893 57.9286C28.2103 60.2447 27.7196 62.6369 27.5152 65.0232C27.1764 68.9653 27.5561 73.1355 28.6484 77.4168C30.0795 83.0258 32.4979 88.7518 36.4875 95.9868C42.3931 106.69 49.5429 116.557 55.1155 123.962C55.945 125.061 56.7686 126.149 57.5981 127.231C63.4862 134.975 69.053 142.292 72.9083 151.305C76.4364 159.54 78.9541 168.892 80.4027 179.098C81.7053 188.269 82.1551 197.879 81.7813 208.483C81.4658 217.426 80.5429 226.918 79.03 236.703C77.7683 244.757 76.1152 253.08 74.0999 261.438Z" fill="#3FBEA9"/>
</svg>
