<svg width="116" height="216" viewBox="0 0 116 216" fill="none" xmlns="http://www.w3.org/2000/svg">
<g clip-path="url(#clip0)">
<path d="M23.3293 21.439L12.1253 43.4615L35.6384 38.0864L116 12.7467L23.3293 21.439Z" fill="#ACE6E2"/>
<path d="M12.1253 43.4615L52.0607 40.9736L42.2687 35.9978L12.1253 43.4615Z" fill="#12D9B8"/>
<path d="M23.3295 21.439L16.3309 0L116.001 12.7467L23.3295 21.439Z" fill="url(#paint0_linear)"/>
<path d="M116.001 12.7467L35.6387 38.0864L47.6102 69.0163L116.001 12.7467Z" fill="url(#paint1_linear)"/>
<path d="M20.9347 65.6069C20.7198 65.5147 20.5357 65.3611 20.3822 65.1768C19.7069 64.409 19.7683 63.2111 20.5664 62.5354C23.022 60.3853 25.6926 58.481 28.4552 56.8531C29.3454 56.331 30.5118 56.6074 31.0337 57.5288C31.5555 58.4196 31.2486 59.5867 30.3584 60.1089C27.7799 61.6139 25.3242 63.3954 23.022 65.3918C22.4388 65.8833 21.61 65.9447 20.9347 65.6069Z" fill="#12D9B8"/>
<path d="M47.7016 271.673C47.6709 271.642 47.6402 271.642 47.6095 271.611C42.1763 268.417 37.2035 264.086 32.8447 258.834C32.2001 258.035 32.2922 256.837 33.0903 256.192C33.8884 255.517 35.0855 255.64 35.7301 256.438C39.8127 261.383 44.4478 265.407 49.5126 268.386C50.4028 268.908 50.7098 270.075 50.1879 270.966C49.6661 271.796 48.561 272.103 47.7016 271.673ZM26.9818 249.927C26.6748 249.773 26.3986 249.527 26.2144 249.189C22.9913 243.538 20.5663 237.456 19.0315 231.129C18.786 230.115 19.3999 229.102 20.4129 228.856C21.4258 228.61 22.4388 229.225 22.6844 230.238C24.1578 236.228 26.46 241.971 29.4989 247.347C30.0207 248.237 29.683 249.404 28.7929 249.896C28.1789 250.203 27.5343 250.203 26.9818 249.927ZM18.2027 221.116C17.6195 220.84 17.2205 220.256 17.1898 219.58L17.1284 218.659C16.8214 212.7 17.1284 206.496 18.08 200.23C18.2334 199.216 19.185 198.51 20.2287 198.664C21.2416 198.817 21.9477 199.769 21.7942 200.814C20.8733 206.803 20.5663 212.762 20.8733 218.475L20.9347 219.335C20.9961 220.379 20.2287 221.27 19.185 221.331C18.8474 221.331 18.5097 221.27 18.2027 221.116ZM21.4258 191.046C20.6584 190.647 20.2287 189.756 20.4742 188.896C22.009 183.06 24.1271 176.948 26.7362 170.713C27.1353 169.761 28.2403 169.3 29.1919 169.699C30.1128 170.068 30.6039 171.204 30.2049 172.157C27.6571 178.238 25.6005 184.197 24.0964 189.848C23.8201 190.862 22.8071 191.446 21.7942 191.169C21.6714 191.169 21.5486 191.108 21.4258 191.046ZM32.3229 162.758C31.402 162.297 31.0337 161.191 31.4941 160.27C31.709 159.871 31.8931 159.441 32.108 159.041C29.2533 157.721 26.4907 156.185 23.9122 154.465C23.0527 153.881 22.8071 152.714 23.3904 151.854C23.9736 150.994 25.14 150.748 25.9995 151.332C28.4552 152.96 31.095 154.434 33.827 155.693C35.8529 151.823 38.063 147.8 40.5801 143.469C41.1019 142.578 42.2684 142.271 43.1586 142.793C44.0487 143.315 44.3557 144.452 43.8339 145.373C41.4089 149.55 39.2602 153.451 37.2956 157.168C39.0453 157.843 40.8257 158.427 42.6367 158.949C43.6497 159.256 44.2329 160.27 43.9566 161.253C43.6804 162.266 42.6367 162.85 41.6545 162.574C39.5978 161.99 37.5719 161.314 35.5767 160.546C35.3311 161.007 35.1162 161.499 34.8706 161.959C34.4102 162.85 33.3052 163.219 32.3229 162.758C32.3536 162.758 32.3536 162.758 32.3229 162.758ZM15.3787 147.308C15.1945 147.216 15.0411 147.093 14.8876 146.94C12.0329 143.991 9.54649 140.766 7.48986 137.326C6.23133 135.176 5.09558 132.903 4.144 130.569C3.74496 129.617 4.2054 128.511 5.15697 128.112C6.10854 127.712 7.2136 128.173 7.61265 129.125C8.50283 131.275 9.54649 133.394 10.7129 135.391C12.6161 138.585 14.9183 141.565 17.5581 144.298C18.2948 145.035 18.2641 146.233 17.5274 146.94C16.9442 147.554 16.054 147.646 15.3787 147.308ZM52.4901 164.416C51.8148 164.079 51.4158 163.372 51.4772 162.574C51.5692 161.529 52.4594 160.761 53.5031 160.854C59.7651 161.376 65.8736 160.915 71.7058 159.441C72.7188 159.195 73.7317 159.779 73.9773 160.792C74.2229 161.806 73.6089 162.819 72.6267 163.065C66.3954 164.631 59.8572 165.154 53.1961 164.57C52.9199 164.57 52.705 164.509 52.4901 164.416ZM1.8725 120.617C1.35067 120.371 0.982321 119.88 0.859538 119.266C-0.245517 112.938 -0.306908 106.365 0.675362 99.7617C0.828842 98.7482 1.78042 98.0417 2.82408 98.1953C3.83704 98.3489 4.54305 99.301 4.38957 100.315C3.46869 106.519 3.53009 112.662 4.57375 118.621C4.75792 119.634 4.08261 120.617 3.03895 120.801C2.6399 120.863 2.24086 120.801 1.8725 120.617ZM81.9275 158.949C81.5899 158.765 81.2829 158.489 81.0987 158.12C80.6383 157.198 80.976 156.062 81.9275 155.601C83.3396 154.895 84.6902 154.096 86.0101 153.236C89.6936 150.841 93.0395 147.646 95.6179 144.053C96.2318 143.223 97.3983 143.008 98.2271 143.623C99.0559 144.237 99.2707 145.404 98.6568 146.233C95.8021 150.226 92.1186 153.728 88.036 156.369C86.624 157.291 85.1506 158.151 83.6158 158.919C83.094 159.226 82.4494 159.195 81.9275 158.949ZM47.2411 136.343C47.1797 136.312 47.1183 136.282 47.0876 136.251C46.2281 135.698 45.9519 134.531 46.5351 133.64C50.7711 127.098 54.6388 122.306 58.7828 118.559C59.5502 117.853 60.7473 117.945 61.4226 118.682C62.1287 119.45 62.0673 120.648 61.2999 121.324C57.4322 124.825 53.7487 129.371 49.6968 135.637C49.1443 136.497 48.1006 136.773 47.2411 136.343ZM4.38957 90.6702C3.56078 90.2401 3.16173 89.288 3.46869 88.3973C4.42027 85.5715 5.58671 82.8379 6.93734 80.1964C8.56422 77.0021 10.4367 73.9613 12.5547 71.1662C13.1686 70.3369 14.3658 70.1526 15.1945 70.7977C16.0233 71.412 16.1768 72.6098 15.5629 73.4391C13.5677 76.0806 11.818 78.9371 10.2832 81.9164C9.02466 84.4043 7.91961 86.9844 7.02942 89.6259C6.69177 90.6087 5.61741 91.1309 4.63514 90.793C4.54305 90.7316 4.48166 90.7009 4.38957 90.6702ZM101.174 136.62C100.406 136.22 99.9768 135.36 100.192 134.5C101.327 130.016 100.898 125.869 98.9638 122.184C98.2885 120.894 97.429 119.696 96.3853 118.651C95.6486 117.914 95.6793 116.716 96.416 116.01C97.1527 115.273 98.3499 115.303 99.0559 116.041C100.345 117.361 101.419 118.836 102.248 120.464C104.581 124.917 105.134 130.108 103.783 135.452C103.537 136.466 102.525 137.08 101.512 136.835C101.45 136.712 101.297 136.681 101.174 136.62ZM68.5441 115.273C68.1758 115.088 67.8688 114.781 67.6846 114.382C67.2549 113.43 67.6539 112.324 68.6055 111.894C74.714 109.068 81.9275 108.393 88.4044 110.02C89.4173 110.266 90.0313 111.311 89.755 112.293C89.5094 113.307 88.4658 113.921 87.4835 113.645C81.9275 112.232 75.4507 112.846 70.2017 115.273C69.6492 115.549 69.0352 115.518 68.5441 115.273Z" fill="#12D9B8"/>
</g>
<defs>
<linearGradient id="paint0_linear" x1="116.005" y1="10.7247" x2="16.3367" y2="10.7247" gradientUnits="userSpaceOnUse">
<stop offset="6.3e-07" stop-color="#F1F8F8"/>
<stop offset="1" stop-color="#C0E4EF"/>
</linearGradient>
<linearGradient id="paint1_linear" x1="116.005" y1="40.8898" x2="35.6295" y2="40.8898" gradientUnits="userSpaceOnUse">
<stop offset="6.3e-07" stop-color="#F1F8F8"/>
<stop offset="1" stop-color="#C0E4EF"/>
</linearGradient>
<clipPath id="clip0">
<rect width="116" height="278" fill="white"/>
</clipPath>
</defs>
</svg>
