<svg width="113" height="36" viewBox="0 0 113 36" fill="none" xmlns="http://www.w3.org/2000/svg">
<g clip-path="url(#clip0)">
<path d="M112.15 35.25H2.64C2.64 35.25 -3.3 27.74 2.64 22.68C5.92 19.89 9.79 20.18 12.6 21C14.43 21.53 16.26 20.3 16.66 18.43C17.33 15.34 19.38 11.3 25.27 8.91C31.07 6.56 34.74 10.15 36.86 13.83C37.56 15.04 39.42 14.86 39.84 13.53C41.68 7.71 48.08 0 69.13 0C95.9 0 92.93 14.23 90.53 20.15C90.11 21.18 90.99 22.24 92.08 22.01C96.21 21.13 103.87 19.98 107.31 22.68C112.15 26.47 112.15 35.25 112.15 35.25Z" fill="white"/>
</g>
<defs>
<clipPath id="clip0">
<rect width="112.15" height="35.25" fill="white"/>
</clipPath>
</defs>
</svg>
