<svg width="150" height="395" viewBox="0 0 150 395" fill="none" xmlns="http://www.w3.org/2000/svg">
<path d="M53.1887 404.605C53.6446 401.507 53.7376 398.351 53.4189 395.182C52.1309 382.492 44.9252 369.953 48.2005 357.56C51.5334 344.937 64.6657 336.589 71.6943 325.271C80.2191 311.559 79.024 294.262 72.5973 279.647C66.1661 265.032 55.0743 252.541 43.9868 240.414C37.0157 232.788 29.655 224.502 28.8893 214.636C27.7252 199.636 41.8224 187.646 48.289 173.792C55.207 158.964 52.7948 140.901 42.1721 127.981C31.1909 114.632 11.4415 104.607 11.5655 87.9781C11.6407 78.1653 19.0545 69.8 22.7458 60.5715C29.9339 42.6014 22.2457 21.9801 8.64865 7.34294C8.54684 7.23229 8.44062 7.11721 8.33439 7.00655C5.80265 4.31547 2.99649 1.98733 0 0V404.605H53.1887Z" fill="#AFD0E2"/>
<path d="M50.3786 411.305C50.3786 411.305 40.8689 395.876 44.362 384.196C47.8551 372.521 56.8625 366.345 58.8777 376.282C62.7096 395.174 50.3786 411.305 50.3786 411.305Z" fill="#FC1258"/>
<path d="M74.5264 390.319C74.5264 390.319 63.9243 376.779 65.9863 365.398C68.0425 354.016 75.8816 347.237 78.8373 356.396C84.445 373.796 74.5264 390.319 74.5264 390.319Z" fill="#FC1258"/>
<path d="M74.509 390.296C74.509 390.296 86.5831 401.11 97.4012 399.87C108.219 398.631 115.071 391.665 106.648 388.319C90.6428 381.967 74.509 390.296 74.509 390.296Z" fill="#FC1258"/>
<path d="M98.2251 372.042C98.2251 372.042 86.2387 359.712 87.0623 348.179C87.8918 336.645 94.9598 329.065 98.8735 337.85C106.321 354.548 98.2251 372.042 98.2251 372.042Z" fill="#FC1258"/>
<path d="M98.2072 372.024C98.2072 372.024 111.368 381.482 121.993 379.09C132.618 376.697 138.682 369.035 129.949 366.614C113.354 362.011 98.2072 372.024 98.2072 372.024Z" fill="#FC1258"/>
<path d="M117.005 345.98C117.005 345.98 105.456 339.616 103.488 330.966C101.519 322.315 105.018 315.168 109.855 320.742C119.043 331.328 117.005 345.98 117.005 345.98Z" fill="#FC1258"/>
<path d="M116.923 345.944C116.923 345.944 129.914 350.454 137.876 345.968C145.832 341.476 148.787 333.814 141.141 333.943C126.608 334.194 116.923 345.944 116.923 345.944Z" fill="#FC1258"/>
<path d="M124.78 318.467C124.78 318.467 118.208 310.407 119.318 303.505C120.428 296.604 125.083 292.41 126.976 297.908C130.58 308.36 124.78 318.467 124.78 318.467Z" fill="#FC1258"/>
<path d="M137.368 306.541C137.368 306.541 138.489 299.493 141.889 295.522C146.107 290.603 152.164 293.299 148.881 299.984C145.236 307.401 137.368 306.541 137.368 306.541Z" fill="#FC1258"/>
<path d="M124.675 318.356C124.675 318.356 132.099 324.836 138.583 323.988C145.073 323.14 149.086 318.841 143.969 316.876C134.249 313.144 124.675 318.356 124.675 318.356Z" fill="#FC1258"/>
<path d="M20.7686 529.579C20.7569 529.328 19.6879 504.008 24.9218 474.835C28.0002 457.692 32.6207 442.584 38.6548 429.939C46.2135 414.101 56.0328 402.099 67.8265 394.256C115.235 362.742 116.602 349.951 117.817 338.663C117.916 337.75 118.009 336.849 118.132 335.955C119.879 322.842 127.805 310.477 137.409 305.892L137.794 306.699C128.448 311.161 120.726 323.245 119.014 336.072C118.897 336.961 118.798 337.85 118.705 338.756C117.472 350.237 116.076 363.251 68.323 394.998C41.8909 412.568 30.6112 448.187 25.8038 474.975C20.5817 504.049 21.6506 529.287 21.6565 529.538L20.7686 529.579Z" fill="#FC1258"/>
</svg>
