<?xml version="1.0" encoding="utf-8"?>
<!-- Generator: Adobe Illustrator 17.0.0, SVG Export Plug-In . SVG Version: 6.00 Build 0)  -->
<!DOCTYPE svg PUBLIC "-//W3C//DTD SVG 1.1//EN" "http://www.w3.org/Graphics/SVG/1.1/DTD/svg11.dtd">
<svg version="1.1" id="Слой_1" xmlns="http://www.w3.org/2000/svg" xmlns:xlink="http://www.w3.org/1999/xlink" x="0px" y="0px"
	 width="1740px" height="432.75px" viewBox="-0.833 0 1740 432.75" enable-background="new -0.833 0 1740 432.75"
	 xml:space="preserve">
<path fill="#D0F0E7" d="M67.344,639h873.093c0,0,31.434-62.171,18.371-118.741c-18.371-79.565-85.715-74.674-91.839-91.808
	C860.846,411.317,958.808,380.5,905,358s-8-81.742-47.832-96.032c-47.758-17.134-60.006-19.579-66.13-37.944
	c-6.123-18.365,9.802-40.39-4.892-67.322c-14.693-26.932-57.559-53.864-102.854-48.974c-45.313,4.891-37.68,30.609-104.087,30.609
	C487.367,138.32,395.528,0,266.947,0c-88.161,0-121.591,70.304-135.92,122.417c-13.462,48.974,9.802,100.375-24.495,140.782
	C72.236,303.606,0,303.589,0,412.531S67.344,639,67.344,639z"/>
<path fill="#F4F5FF" d="M1473.968,280.149l8.184,356.547c0,0,25.684,12.254,48.663,6.389c32.32-8.248,29.691-35.704,36.631-38.365
	c6.94-2.661,20.443,37.055,29.127,14.87s33.306-4.033,38.768-20.434c6.549-19.664,7.433-24.688,14.875-27.361
	c7.442-2.673,16.586,3.624,27.447-2.629c10.861-6.253,21.457-24.01,19.036-42.462c-2.422-18.459-12.853-15.101-13.476-42.219
	c-0.854-37.504,54.771-76.305,53.566-128.814c-0.826-36.003-29.85-48.995-51.266-54.358c-20.126-5.038-40.899,4.944-57.721-8.683
	c-16.823-13.627-17.493-43.126-61.982-42.105C1521.332,251.546,1473.968,280.149,1473.968,280.149z"/>
<path fill="#D0F0E7" d="M446.964,37.944c-10.287,9.972,62.451,48.974,85.715,62.431c23.263,13.458,62.451,17.134,82.037,0
	c19.586-17.133,31.833-29.377-8.57-46.511C565.743,36.73,470.071,15.538,446.964,37.944z"/>
<path fill="#F4F5FF" d="M1592,254.775c-0.16-0.122-0.31-0.245-0.48-0.367c-36.24-26.755-105.74-43.379-160.34-28.432
	c-46.92,12.845-66.72,42.982-80.9,70.462c-14.18,27.49-30.25,57.722-74.34,73.243c-27.4,9.64-67.62,7.473-92.52-2.347
	c-18.08-7.124-38.24-5.871-55.81,2.46c-26.2,12.421-62.44,18.97-96.69,16.313c-10.41-0.811-20.72,2.28-29.32,8.264
	c-16.997,11.799-51.111,16.37-76.953,10.942c-15.234-3.195-30.987-1.574-45.053,5.136c-36.13,17.227-96.087,19.856-136.363,5.588
	c-14.819-5.249-31.118-4.137-44.817,3.638c-8.771,4.975-18.39,9.574-28.414,13.334h922V254.775z"/>
<polyline fill="#F4F5FF" points="2307.572,753.908 2305.572,589.908 2833.572,705.908 2833.572,759.783 2309.072,760.042 "/>
<rect x="-565.821" y="1259.994" fill="#BC1D1D" width="113.042" height="433.204"/>
<rect x="2003.979" y="1728.273" fill="#BC1D1D" width="113.042" height="433.204"/>
<polyline fill="#FFFFFF" points="1660.5,4.875 1692.5,241.875 1464.5,172.875 "/>
<path fill="#FFFFFF" d="M1535.5,226.875c0,0,128.5,12,130,12s-89-66-89-66h-60L1535.5,226.875z"/>
</svg>
