<svg width="278" height="142" viewBox="0 0 278 142" fill="none" xmlns="http://www.w3.org/2000/svg">
<mask id="mask0" mask-type="alpha" maskUnits="userSpaceOnUse" x="-77" y="-289" width="431" height="431">
<circle cx="138.5" cy="-73.5" r="215.5" fill="#E38B6F"/>
</mask>
<g mask="url(#mask0)">
<path d="M605 -120.973H-116V186.638H605V-120.973Z" fill="#F5C3A6"/>
<path opacity="0.6" d="M602.258 61.859C555.525 43.7447 492.782 32.6571 423.803 32.6571C348.639 32.6571 280.881 45.821 233.171 66.897C193.817 42.1094 137.877 26.6241 75.8154 26.6241C-5.24752 26.6241 -75.8658 53.042 -112.721 92.1002V195.066H602.259V61.859H602.258Z" fill="#F1A77E"/>
<path d="M107.021 14.9422L144.295 5.26062L130.899 -46.3157L93.6248 -36.6341L107.021 14.9422Z" fill="#FCEDE5"/>
<path d="M112.307 15.5563L113.684 12.9928L104.032 7.81087L102.656 10.3744L112.307 15.5563Z" fill="#F3A173"/>
<path d="M145.818 -0.835585L143.368 -2.4054L137.458 6.8191L139.908 8.38891L145.818 -0.835585Z" fill="#F3A173"/>
<path opacity="0.3" d="M208.027 1.39694C226.018 1.39694 240.603 -13.1881 240.603 -31.1797C240.603 -49.1713 226.018 -63.7563 208.027 -63.7563C190.035 -63.7563 175.45 -49.1713 175.45 -31.1797C175.45 -13.1881 190.035 1.39694 208.027 1.39694Z" fill="#F1905B"/>
<path d="M232.406 -11.3425C245.127 -24.0643 245.127 -44.6905 232.406 -57.4124C219.684 -70.1342 199.058 -70.1342 186.336 -57.4124C173.614 -44.6905 173.614 -24.0643 186.336 -11.3425C199.058 1.37935 219.684 1.37936 232.406 -11.3425Z" fill="#EB854C"/>
<path d="M229.951 -13.7971C241.317 -25.1633 241.317 -43.5916 229.951 -54.9578C218.585 -66.324 200.157 -66.324 188.791 -54.9578C177.424 -43.5916 177.424 -25.1633 188.791 -13.7971C200.157 -2.43091 218.585 -2.43092 229.951 -13.7971Z" fill="#FCEDE5"/>
<g opacity="0.5">
<path opacity="0.3" d="M96.9027 128.909C118.035 128.909 135.167 127.539 135.167 125.848C135.167 124.158 118.035 122.787 96.9027 122.787C75.7701 122.787 58.6387 124.158 58.6387 125.848C58.6387 127.539 75.7701 128.909 96.9027 128.909Z" fill="#F1905B"/>
</g>
<path d="M35.27 6.74097H40.6499L39.8951 15.8273H36.0248L35.27 6.74097Z" fill="#F7CEB7"/>
<path opacity="0.35" d="M35.27 6.74097H40.6499L40.5813 7.56434C39.1391 7.43092 37.1849 7.44998 36.8774 8.47285C36.5013 9.7257 38.2166 10.7714 40.3043 10.9023L40.0349 14.1412C38.9244 15.0001 37.7389 15.1869 36.9879 14.4957C36.317 13.8781 36.1099 13.9684 35.8583 13.8197L35.27 6.74097Z" fill="#F7CEB7"/>
<path d="M25.387 20.6646V11.4093H42.4478C43.1238 11.4093 43.7108 11.8782 43.8582 12.5389L45.6816 20.6659H25.387V20.6646Z" fill="#F7CEB7"/>
<path opacity="0.35" d="M44.726 16.4068C43.1288 16.4385 41.1543 16.4639 38.8874 16.4639C34.4986 16.4639 32.8455 13.2848 32.2509 11.4081H28.4834C28.3526 11.5885 28.2115 11.7804 28.054 11.9849C25.9892 14.685 27.228 13.8274 27.1963 17.4487C27.1658 20.9315 27.6652 18.5097 32.2522 20.6634H45.6815L44.726 16.4068Z" fill="#F7CEB7"/>
<path d="M25.0513 20.6647V18.1971H46.4005C47.0816 18.1971 47.6343 18.7499 47.6343 19.4309C47.6343 20.112 47.0816 20.6647 46.4005 20.6647H25.0513Z" fill="#F7CEB7"/>
<path d="M17.5631 20.5927H20.7842V19.4503H17.5631V20.5927Z" fill="#F08E57"/>
<path d="M19.74 20.6647V4.35986H30.9737L33.5162 20.6647H19.74Z" fill="#F7CEB7"/>
<path d="M30.5216 5.15771L31.425 11.4715V16.9302C31.425 17.4982 30.7198 17.7675 30.3462 17.3406C29.4301 16.2949 27.8926 15.1297 25.5839 15.1297C23.528 15.1297 22.2688 15.9963 21.5178 16.8781C21.1519 17.3088 20.4479 17.0636 20.4301 16.4994C20.3056 12.6621 20.115 5.21617 20.5089 5.21617C21.0388 5.21617 30.5216 5.15771 30.5216 5.15771Z" fill="#F5B18B"/>
<path d="M21.3831 11.5212V6.30273H29.9383L30.7527 11.5212H21.3831Z" fill="url(#paint0_linear)"/>
<path d="M29.046 23.901C30.8453 22.1018 30.8453 19.1846 29.046 17.3853C27.2467 15.5861 24.3296 15.5861 22.5303 17.3853C20.7311 19.1846 20.7311 22.1018 22.5303 23.901C24.3296 25.7003 27.2467 25.7003 29.046 23.901Z" fill="#F5B18B"/>
<path d="M27.9982 21.0014C28.1958 19.7844 27.3692 18.6376 26.1522 18.4401C24.9351 18.2426 23.7883 19.0691 23.5908 20.2861C23.3933 21.5032 24.2198 22.65 25.4369 22.8475C26.6539 23.045 27.8007 22.2185 27.9982 21.0014Z" fill="#F7CEB7"/>
<path d="M37.0274 23.3659C37.4138 21.7296 36.4005 20.0899 34.7642 19.7035C33.1279 19.3171 31.4881 20.3304 31.1017 21.9667C30.7153 23.6031 31.7286 25.2428 33.365 25.6292C35.0013 26.0156 36.6411 25.0023 37.0274 23.3659Z" fill="#F5B18B"/>
<path d="M35.5387 22.7757C35.6059 21.9637 35.0021 21.251 34.1902 21.1838C33.3782 21.1165 32.6655 21.7203 32.5983 22.5322C32.5311 23.3442 33.1348 24.0569 33.9468 24.1241C34.7587 24.1914 35.4714 23.5876 35.5387 22.7757Z" fill="#F7CEB7"/>
<path d="M44.1534 23.3659C44.5398 21.7296 43.5265 20.0898 41.8902 19.7035C40.2538 19.3171 38.6141 20.3304 38.2277 21.9667C37.8413 23.6031 38.8546 25.2428 40.4909 25.6292C42.1273 26.0156 43.767 25.0023 44.1534 23.3659Z" fill="#F5B18B"/>
<path d="M42.6506 22.8889C42.7812 22.0847 42.235 21.3269 41.4308 21.1964C40.6266 21.0659 39.8688 21.612 39.7383 22.4163C39.6078 23.2205 40.1539 23.9782 40.9581 24.1088C41.7624 24.2393 42.5201 23.6931 42.6506 22.8889Z" fill="#F7CEB7"/>
<path d="M45.14 20.4893C45.4081 20.7041 47.7194 24.9505 47.7194 24.9505H52.6101L47.1273 18.4474L44.8694 18.394L45.14 20.4893Z" fill="#F7CEB7"/>
<path d="M19.1746 4.72832H31.482C31.482 3.98373 30.8784 3.37891 30.1326 3.37891H20.5227C19.7781 3.37891 19.1746 3.98246 19.1746 4.72832Z" fill="#F5B18B"/>
<path d="M0.136957 20.5953L17.9043 20.5953V11.2447L0.136957 11.2447V20.5953Z" fill="#F7CEB7"/>
<path opacity="0.35" d="M0.137939 13.3407C1.66652 15.6304 4.55976 18.8134 9.54956 18.8134C14.4504 18.8134 16.7681 15.4513 17.904 12.8337V20.5948H0.137939V13.3407Z" fill="#F7CEB7"/>
<path d="M6.1894 24.8042C7.37832 23.6153 7.37832 21.6877 6.1894 20.4988C5.00048 19.3098 3.07286 19.3098 1.88393 20.4988C0.695014 21.6877 0.695019 23.6153 1.88394 24.8042C3.07286 25.9931 5.00048 25.9931 6.1894 24.8042Z" fill="#F5B18B"/>
<path d="M5.49805 22.8892C5.62858 22.0849 5.08243 21.3272 4.2782 21.1966C3.47398 21.0661 2.71622 21.6123 2.5857 22.4165C2.45517 23.2207 3.00132 23.9785 3.80555 24.109C4.60977 24.2395 5.36753 23.6934 5.49805 22.8892Z" fill="#F7CEB7"/>
<path d="M15.0348 25.4657C16.5883 24.8222 17.326 23.0413 16.6825 21.4878C16.039 19.9344 14.2581 19.1967 12.7046 19.8401C11.1512 20.4836 10.4135 22.2646 11.057 23.818C11.7004 25.3715 13.4814 26.1092 15.0348 25.4657Z" fill="#F5B18B"/>
<path d="M15.325 22.89C15.4555 22.0858 14.9093 21.328 14.1051 21.1975C13.3009 21.067 12.5431 21.6131 12.4126 22.4174C12.2821 23.2216 12.8282 23.9793 13.6324 24.1099C14.4367 24.2404 15.1944 23.6942 15.325 22.89Z" fill="#F7CEB7"/>
<path d="M-0.468018 10.76H18.5204C18.5204 11.1882 18.1735 11.5351 17.7453 11.5351H0.307077C-0.121128 11.5351 -0.468018 11.1882 -0.468018 10.76Z" fill="#F5B18B"/>
<path d="M-3.00867 20.5927H0.212402L0.212402 19.4503H-3.00867V20.5927Z" fill="#F08E57"/>
<path d="M34.5251 6.05371H41.3218C41.3218 6.48192 40.9749 6.82881 40.5467 6.82881H35.3002C34.872 6.82881 34.5251 6.48192 34.5251 6.05371Z" fill="#F5B18B"/>
<path d="M76.1193 27.13H-113.743V114.794H76.1193V27.13Z" fill="#F6C5AA"/>
<path d="M74.1231 28.7235C72.8868 31.848 73.5234 64.337 46.3113 62.2544C19.0993 60.1718 12.8961 36.4287 12.8961 36.4287C12.8961 36.4287 7.94821 71.2099 12.8961 71.0015C17.8439 70.7931 75.5665 70.168 75.5665 70.168L74.1231 28.7235Z" fill="#F6C5AA"/>
<path d="M11.6421 28.7235C10.4058 31.848 9.16819 66.2112 -18.0438 64.1286C-45.2558 62.046 -49.5849 36.4287 -49.5849 36.4287C-49.5849 36.4287 -54.5328 71.2099 -49.5849 71.0015C-44.637 70.7931 13.0856 70.168 13.0856 70.168L11.6421 28.7235Z" fill="#F6C5AA"/>
<path d="M74.1081 71.2111C72.8591 74.3356 71.6088 108.699 44.1173 106.616C16.6257 104.534 12.2522 78.9162 12.2522 78.9162C12.2522 78.9162 7.25346 113.697 12.2522 113.489C17.2509 113.281 75.5656 112.656 75.5656 112.656L74.1081 71.2111Z" fill="#F6C5AA"/>
<path d="M-51.1733 71.2111C-49.937 74.3356 -48.6994 108.699 -21.4874 106.616C5.72464 104.534 10.0537 78.9162 10.0537 78.9162C10.0537 78.9162 15.0016 113.697 10.0537 113.489C5.10584 113.281 -52.6155 112.656 -52.6155 112.656L-51.1733 71.2111Z" fill="#F6C5AA"/>
<path d="M62.5262 43.1248H23.6179V65.1157H62.5262V43.1248Z" fill="#F08C55"/>
<path d="M25.1069 42.421L30.464 67.6546L34.6926 42.1389L25.1069 42.421Z" fill="#FCEBE1"/>
<path d="M34.6216 67.5833L39.9786 42.3497L44.2085 67.8654L34.6216 67.5833Z" fill="#FCEBE1"/>
<path d="M42.728 42.421L48.085 67.6546L52.3137 42.1389L42.728 42.421Z" fill="#FCEBE1"/>
<path d="M52.2427 67.5833L57.5997 42.3497L61.8297 67.8654L52.2427 67.5833Z" fill="#FCEBE1"/>
<path opacity="0.5" d="M62.5262 62.5645C51.4563 62.7423 32.8593 62.0765 30.8199 55.2278C28.4552 47.2914 51.2746 47.2456 62.5262 47.3956V43.1262H23.6179V65.1172H62.5262V62.5645Z" fill="#F7CEB7"/>
<path d="M63.9109 69.0675H22.2327C21.4665 69.0675 20.8464 68.4462 20.8464 67.6812V66.7829C20.8464 66.0167 21.4678 65.3966 22.2327 65.3966H63.9109C64.6771 65.3966 65.2972 66.018 65.2972 66.7829V67.6812C65.2985 68.4462 64.6771 69.0675 63.9109 69.0675Z" fill="#F7CEB7"/>
<path d="M63.3392 67.7142H22.8058C21.7232 67.7142 20.8464 67.2746 20.8464 66.7333V68.0865C20.8464 68.6291 21.7232 69.0674 22.8058 69.0674H63.3392C64.4217 69.0674 65.2985 68.6278 65.2985 68.0865V66.7333C65.2985 67.2746 64.4205 67.7142 63.3392 67.7142Z" fill="#F7CEB7"/>
<path d="M63.9109 45.7958H22.2327C21.4665 45.7958 20.8464 45.1744 20.8464 44.4095V43.5111C20.8464 42.7449 21.4678 42.1249 22.2327 42.1249H63.9109C64.6771 42.1249 65.2972 42.7462 65.2972 43.5111V44.4095C65.2985 45.1757 64.6771 45.7958 63.9109 45.7958Z" fill="#F7CEB7"/>
<path d="M63.3392 44.4425H22.8058C21.7232 44.4425 20.8464 44.0028 20.8464 43.4615V44.8148C20.8464 45.3573 21.7232 45.7957 22.8058 45.7957H63.3392C64.4217 45.7957 65.2985 45.3561 65.2985 44.8148V43.4615C65.2985 44.0028 64.4205 44.4425 63.3392 44.4425Z" fill="#F7CEB7"/>
<path d="M76.1193 68.9226H-113.743V73.0026H76.1193V68.9226Z" fill="#FCEDE5"/>
<path d="M76.1193 25.5302H-116V29.6102H76.1193V25.5302Z" fill="#FCEDE5"/>
<path d="M76.1193 110.343H-113.743V114.423H76.1193V110.343Z" fill="#FCEDE5"/>
<path d="M76.1709 114.417L76.1709 26.1383L72.5585 26.1383L72.5585 114.417L76.1709 114.417Z" fill="#FCEDE5"/>
<path d="M13.3362 114.416L13.3362 27.1417L9.72375 27.1417L9.7238 114.416L13.3362 114.416Z" fill="#FCEDE5"/>
<path d="M239.805 147.35H242.076C243.633 147.35 244.793 145.916 244.469 144.393L237.143 110.059C236.723 108.091 234.875 106.447 233.082 106.447H229.245C227.452 106.447 226.438 108.091 227.016 110.059L237.459 145.593C237.765 146.635 238.72 147.35 239.805 147.35Z" fill="#FCEDE5"/>
<path opacity="0.35" d="M237.143 110.059C236.723 108.091 234.875 106.447 233.082 106.447H229.245C227.452 106.447 226.438 108.091 227.016 110.059L229.089 117.111C231.192 114.19 234.941 112.835 237.603 112.217L237.143 110.059Z" fill="#F2AC85"/>
<path d="M200.745 147.35H198.474C196.918 147.35 195.758 145.916 196.082 144.393L203.407 110.059C203.828 108.091 205.675 106.447 207.468 106.447H211.305C213.098 106.447 214.112 108.091 213.534 110.059L203.092 145.593C202.787 146.635 201.832 147.35 200.745 147.35Z" fill="#F8D7C4"/>
<path opacity="0.35" d="M212.141 114.803L213.535 110.059C214.113 108.091 213.099 106.447 211.307 106.447H207.469C205.676 106.447 203.828 108.091 203.408 110.059L201.374 119.593C204.731 116.691 208.631 115.372 212.141 114.803Z" fill="#ED905D"/>
<path opacity="0.35" d="M211.305 106.447H207.468C205.675 106.447 203.826 108.091 203.407 110.059L203.192 111.063C205.778 111.221 208.827 111.742 210.056 113.195C210.919 114.214 211.314 115.662 211.475 117.059L213.533 110.059C214.113 108.091 213.099 106.447 211.305 106.447Z" fill="#F2AC85"/>
<path d="M204.564 64.9861H212.394L212.404 103.342C212.404 104.748 211.277 105.889 209.925 105.889H207.033C205.681 105.889 204.554 104.748 204.554 103.342L204.564 64.9861Z" fill="#F2AC85"/>
<path opacity="0.35" d="M206.749 85.8665C206.803 82.0749 210.104 81.4955 212.398 81.5514L212.395 71.8094C211.248 71.8501 209.652 72.1512 206.249 72.1512C205.618 72.1512 205.062 72.1576 204.562 72.1754L204.554 103.34C204.554 104.747 205.683 105.888 207.033 105.888H209.925C211.277 105.888 212.404 104.747 212.404 103.34L212.403 100.659C205.679 98.6314 206.677 90.8881 206.749 85.8665Z" fill="#F2AC85"/>
<path d="M185.448 64.9861H193.278L193.288 103.342C193.288 104.748 192.161 105.889 190.809 105.889H187.917C186.565 105.889 185.438 104.748 185.438 103.342L185.448 64.9861Z" fill="#F8D7C4"/>
<path opacity="0.35" d="M187.632 85.8665C187.687 82.0749 190.988 81.4955 193.281 81.5514L193.279 71.8094C192.131 71.8501 190.536 72.1512 187.133 72.1512C186.501 72.1512 185.946 72.1576 185.445 72.1754L185.438 103.34C185.438 104.747 186.566 105.888 187.917 105.888H190.809C192.161 105.888 193.288 104.747 193.288 103.34L193.286 100.659C186.561 98.6314 187.561 90.8881 187.632 85.8665Z" fill="#F2AC85"/>
<path d="M181.319 147.35H179.049C177.492 147.35 176.332 145.916 176.656 144.393L183.981 110.059C184.402 108.091 186.249 106.447 188.042 106.447H191.88C193.673 106.447 194.687 108.091 194.108 110.059L183.666 145.593C183.36 146.635 182.404 147.35 181.319 147.35Z" fill="#FCEDE5"/>
<path opacity="0.35" d="M193.096 113.505L194.108 110.059C194.686 108.091 193.672 106.447 191.88 106.447H188.492C187.863 106.558 187.212 106.678 186.549 106.808C185.323 107.397 184.284 108.644 183.982 110.059L181.956 119.556C185.695 115.316 190.191 114.005 193.096 113.505Z" fill="#F2AC85"/>
<path d="M235.137 108.098H183.753V111.64H235.137V108.098Z" fill="#F2AC85"/>
<path d="M235.137 108.098H183.753V111.64H235.137V108.098Z" fill="#FCEDE5"/>
<path d="M220.45 147.35H222.721C224.277 147.35 225.437 145.916 225.113 144.393L217.788 110.059C217.367 108.091 215.52 106.447 213.727 106.447H209.89C208.097 106.447 207.083 108.091 207.661 110.059L218.103 145.593C218.409 146.635 219.365 147.35 220.45 147.35Z" fill="#FCEDE5"/>
<path opacity="0.35" d="M217.788 110.059C217.367 108.091 215.52 106.447 213.727 106.447H209.89C208.097 106.447 207.083 108.091 207.661 110.059L210.096 118.344C212.178 115.343 215.989 114.134 218.547 113.619L217.788 110.059Z" fill="#F2AC85"/>
<path d="M243.025 109.31H183.102C180.961 109.31 179.227 107.574 179.227 105.434C179.227 103.293 180.962 101.559 183.102 101.559H243.025C245.166 101.559 246.901 103.295 246.901 105.434C246.901 107.574 245.165 109.31 243.025 109.31Z" fill="#EB864E"/>
<path d="M181.39 101.964C181.39 103.929 195.555 105.521 213.028 105.521C230.501 105.521 244.666 103.929 244.666 101.964C240.217 99.5346 230.501 98.4076 213.028 98.4076C195.555 98.4063 181.39 99.9997 181.39 101.964Z" fill="#EF9A6B"/>
<path d="M210.963 109.31H183.102C180.961 109.31 179.227 107.574 179.227 105.434C179.227 103.293 180.962 101.559 183.102 101.559H210.963C213.104 101.559 214.839 103.295 214.839 105.434C214.839 107.574 213.104 109.31 210.963 109.31Z" fill="#F6B896"/>
<path d="M220.127 53.9796H179.196C176.429 53.9796 174.329 56.4764 174.806 59.2032L177.749 76.0532C178.121 78.1866 179.974 79.7431 182.139 79.7431H216.118C218.926 79.7431 221.328 77.724 221.811 74.9591L224.555 59.249C225.036 56.498 222.919 53.9796 220.127 53.9796Z" fill="#EF9A6B"/>
<path opacity="0.35" d="M218.607 79.1789C207.677 78.7291 191.077 77.494 185.413 74.1116C179.916 70.8283 178.754 60.9948 178.524 54.0304C176.099 54.3951 174.369 56.7013 174.806 59.2019L177.749 76.0518C178.121 78.1853 179.974 79.7418 182.139 79.7418H216.118C217.005 79.743 217.85 79.541 218.607 79.1789Z" fill="#EB864E"/>
<path d="M261.033 146.847H258.652C257.021 146.847 255.803 145.344 256.144 143.748L270.125 97.6721C270.566 95.6086 272.502 93.8856 274.383 93.8856H278.404C280.283 93.8856 281.347 95.6086 280.741 97.6721L263.492 145.006C263.173 146.097 262.17 146.847 261.033 146.847Z" fill="#FCEDE5"/>
<path opacity="0.35" d="M270.126 97.671C270.567 95.6075 272.503 93.8845 274.384 93.8845H278.406C280.285 93.8845 281.348 95.6075 280.742 97.671L278.162 104.754C275.745 102.131 272.155 100.778 269.392 100.09L270.126 97.671Z" fill="#F2AC85"/>
<path d="M250.727 87.3163C250.727 87.3163 300.095 89.2197 313.117 89.4726C314.521 89.4611 315.939 89.451 317.368 89.4433C328.521 89.0939 396.178 87.3163 396.178 87.3163V93.8398C396.178 93.8398 396.174 93.8398 396.173 93.8398C395.749 96.2273 363.354 98.1561 323.453 98.1561C283.563 98.1561 251.175 96.2298 250.733 93.8423C250.732 93.841 250.728 93.841 250.728 93.8398C250.553 93.564 250.727 87.3163 250.727 87.3163Z" fill="#F2AC85"/>
<path d="M250.727 87.3163C250.727 87.3163 300.095 89.2197 313.117 89.4726C314.521 89.4611 315.939 89.451 317.368 89.4433C328.521 89.0939 396.178 87.3163 396.178 87.3163V93.8398C396.178 93.8398 396.174 93.8398 396.173 93.8398C395.749 96.2273 363.354 98.1561 323.453 98.1561C283.563 98.1561 251.175 96.2298 250.733 93.8423C250.732 93.841 250.728 93.841 250.728 93.8398C250.553 93.564 250.727 87.3163 250.727 87.3163Z" fill="#F8D7C4"/>
<path d="M323.454 91.6796C363.618 91.6796 396.179 89.7261 396.179 87.3163C396.179 84.9064 363.618 82.9529 323.454 82.9529C283.289 82.9529 250.729 84.9064 250.729 87.3163C250.729 89.7261 283.289 91.6796 323.454 91.6796Z" fill="#FEF6F2"/>
<path d="M269.733 89.1373H310.571L307.314 84.8679H272.99L269.733 89.1373Z" fill="#F8D7C4"/>
<path opacity="0.2" d="M218.717 97.658C218.717 97.658 224.142 98.7329 225.169 99.8092C226.196 100.884 221.992 107.092 217.837 107.287C213.682 107.483 212.168 105.331 208.502 104.452C204.836 103.573 204.201 107.776 199.069 107.189C193.937 106.602 189.342 102.448 192.129 100.591C194.915 98.733 198.12 97.9604 201.21 97.7355C204.3 97.5106 210.653 97.3645 213.831 97.5601C217.009 97.7558 218.717 97.658 218.717 97.658Z" fill="#F6B896"/>
<path d="M199.765 80.4409C199.765 80.4409 185.913 89.728 186.573 92.9618C187.234 96.1956 193.431 97.1473 196.861 90.3938C199.428 84.1588 199.765 80.4409 199.765 80.4409Z" fill="#F5B18B"/>
<path d="M193.065 91.4408C193.284 90.5615 192.747 89.6721 191.867 89.4535C190.988 89.235 190.098 89.7724 189.88 90.6517C189.661 91.531 190.197 92.4204 191.078 92.639C191.958 92.8563 192.848 92.3201 193.065 91.4408Z" fill="#F29B6B"/>
<path d="M188.421 92.2629C188.008 92.5602 187.591 92.6872 187.49 92.5462C187.388 92.4052 187.641 92.0494 188.054 91.7521C188.467 91.4547 188.883 91.3277 188.985 91.4687C189.087 91.6097 188.834 91.9655 188.421 92.2629Z" fill="#F29B6B"/>
<path d="M189.479 93.4662C189.122 93.8283 188.732 94.0228 188.607 93.9008C188.484 93.7788 188.674 93.3862 189.031 93.0253C189.388 92.6632 189.778 92.4688 189.902 92.5907C190.025 92.7127 189.836 93.1041 189.479 93.4662Z" fill="#F29B6B"/>
<path d="M190.949 94.1091C190.736 94.5703 190.434 94.8854 190.277 94.813C190.119 94.7406 190.165 94.3073 190.379 93.8448C190.592 93.3835 190.893 93.0684 191.051 93.1409C191.208 93.2145 191.163 93.6478 190.949 94.1091Z" fill="#F29B6B"/>
<path opacity="0.35" d="M186.637 92.2069C186.553 92.4839 186.526 92.738 186.572 92.9617C187.233 96.1954 193.43 97.1472 196.859 90.3937C197.82 88.0634 198.468 86.085 198.902 84.5195C197.319 87.9985 193.623 93.6821 186.637 92.2069Z" fill="#F29B6B"/>
<path d="M215.367 79.2299C215.367 79.2299 230.551 86.1294 230.428 89.428C230.305 92.7266 224.346 94.677 219.86 88.5754C216.306 82.8435 215.367 79.2299 215.367 79.2299Z" fill="#F5B18B"/>
<path d="M223.772 88.9873C223.414 88.155 223.798 87.1893 224.63 86.831C225.462 86.4727 226.428 86.8564 226.786 87.6887C227.145 88.521 226.761 89.4866 225.929 89.845C225.096 90.2033 224.131 89.8195 223.772 88.9873Z" fill="#F29B6B"/>
<path d="M228.489 89.0406C228.945 89.2668 229.377 89.324 229.454 89.1689C229.532 89.0139 229.225 88.7039 228.768 88.4777C228.312 88.2515 227.88 88.1944 227.803 88.3494C227.726 88.5044 228.033 88.8144 228.489 89.0406Z" fill="#F29B6B"/>
<path d="M227.642 90.4001C228.053 90.6987 228.47 90.827 228.572 90.686C228.673 90.5449 228.423 90.1892 228.01 89.8906C227.597 89.592 227.182 89.4636 227.08 89.6047C226.98 89.7457 227.23 90.1015 227.642 90.4001Z" fill="#F29B6B"/>
<path d="M226.296 91.2744C226.582 91.695 226.93 91.9567 227.074 91.8589C227.217 91.761 227.102 91.3417 226.816 90.9212C226.53 90.5006 226.182 90.2388 226.038 90.3367C225.894 90.4345 226.01 90.8538 226.296 91.2744Z" fill="#F29B6B"/>
<path opacity="0.35" d="M230.24 88.6936C230.368 88.9528 230.436 89.1993 230.427 89.4281C230.304 92.7266 224.344 94.6771 219.859 88.5755C218.531 86.4332 217.568 84.5869 216.883 83.1143C219.014 86.287 223.589 91.2896 230.24 88.6936Z" fill="#F29B6B"/>
<path d="M217.459 80.9988C215.999 79.0191 208.401 75.0052 208.401 75.0052L206.878 75.0229C206.872 74.9785 206.869 74.9543 206.869 74.9543L206.605 75.0255L206.33 75.0293C206.33 75.0293 206.334 75.0535 206.339 75.0979L204.868 75.4931C204.868 75.4931 198.643 81.4155 197.774 83.7167C196.924 85.967 190.771 104.145 210.043 101.757C210.043 101.758 210.043 101.76 210.043 101.761C210.126 101.75 210.207 101.737 210.29 101.725C210.372 101.715 210.454 101.704 210.536 101.692C210.536 101.691 210.536 101.69 210.536 101.689C229.733 98.7649 218.887 82.934 217.459 80.9988Z" fill="#F5B18B"/>
<path d="M217.027 96.9921C216.559 91.4471 212.387 87.2705 207.705 87.6657C203.024 88.0596 199.608 92.8753 200.075 98.4203C200.139 99.1815 200.273 99.9172 200.469 100.619C202.583 101.777 205.655 102.301 210.043 101.757C210.043 101.758 210.043 101.76 210.043 101.761C210.126 101.749 210.207 101.737 210.29 101.725C210.373 101.715 210.454 101.704 210.536 101.692C210.536 101.691 210.536 101.69 210.536 101.688C213.22 101.279 215.317 100.619 216.934 99.7774C217.071 98.8841 217.107 97.9489 217.027 96.9921Z" fill="#F7CFB9"/>
<path opacity="0.3" d="M221.168 95.4827C219.479 97.3124 216.597 98.7686 211.968 99.4738C211.968 99.475 211.968 99.4763 211.968 99.4776C211.886 99.489 211.803 99.4992 211.722 99.5106C211.639 99.5221 211.559 99.5348 211.475 99.5462C211.475 99.5449 211.475 99.5437 211.475 99.5424C192.269 101.921 198.314 83.8767 199.197 81.526C198.516 82.3786 197.986 83.155 197.774 83.7166C196.924 85.9669 190.771 104.145 210.043 101.757C210.043 101.758 210.043 101.76 210.043 101.761C210.126 101.749 210.207 101.737 210.29 101.725C210.372 101.715 210.454 101.704 210.536 101.692C210.536 101.691 210.536 101.69 210.536 101.689C216.915 100.718 219.976 98.3213 221.168 95.4827Z" fill="#F29B6B"/>
<path opacity="0.5" d="M204.868 75.493C204.868 75.493 200.689 79.7141 197.438 82.0546C199.773 83.7738 204.094 84.1626 207.892 83.6391C211.625 83.1232 214.914 82.4269 216.717 80.23C214.325 78.1347 208.403 75.0051 208.403 75.0051L206.879 75.0229C206.874 74.9899 206.872 74.9683 206.87 74.9594C206.87 74.9568 206.87 74.9556 206.87 74.9556L206.606 75.0267L206.332 75.0305C206.332 75.0305 206.335 75.0547 206.341 75.0991L204.868 75.493Z" fill="#F29B6B"/>
<path d="M217.769 64.1139C218.535 61.9739 217.421 59.6181 215.281 58.8521C213.141 58.0861 210.786 59.2 210.02 61.34C209.254 63.48 210.367 65.8358 212.507 66.6018C214.647 67.3678 217.003 66.2539 217.769 64.1139Z" fill="#F5B18B"/>
<path d="M212.312 61.3534C212.312 61.3534 214.785 59.1971 217.041 61.7041C216.107 61.1641 212.312 61.3534 212.312 61.3534Z" fill="#F29B6B"/>
<path d="M212.964 60.9962C212.964 60.9962 216.155 60.2363 216.988 63.5031C216.413 62.5921 212.964 60.9962 212.964 60.9962Z" fill="#F29B6B"/>
<path opacity="0.35" d="M210.415 60.4982C209.907 61.2936 209.668 62.2669 209.807 63.2745C210.118 65.5261 212.196 67.0991 214.447 66.7891C216.699 66.4778 218.272 64.4003 217.962 62.1487C217.936 61.9645 217.898 61.7853 217.85 61.61C214.982 62.3609 212.152 61.3647 210.415 60.4982Z" fill="#F29B6B"/>
<path d="M199.37 67.4483C200.62 65.5502 200.095 62.9978 198.197 61.7474C196.299 60.497 193.747 61.0222 192.496 62.9204C191.246 64.8185 191.771 67.3709 193.669 68.6213C195.567 69.8717 198.12 69.3465 199.37 67.4483Z" fill="#F5B18B"/>
<path d="M197.081 63.4562C197.081 63.4562 194.117 62.0509 192.624 65.075C193.378 64.3012 197.081 63.4562 197.081 63.4562Z" fill="#F29B6B"/>
<path d="M196.357 63.2898C196.357 63.2898 193.079 63.4219 193.162 66.7942C193.47 65.7599 196.357 63.2898 196.357 63.2898Z" fill="#F29B6B"/>
<path opacity="0.35" d="M198.675 62.1196C199.38 62.7473 199.873 63.619 200.013 64.6279C200.324 66.8794 198.75 68.9569 196.498 69.2682C194.247 69.5796 192.169 68.0052 191.858 65.7537C191.833 65.5694 191.821 65.3864 191.82 65.2047C194.784 65.1501 197.239 63.4233 198.675 62.1196Z" fill="#F29B6B"/>
<path d="M217.234 68.7079C215.94 63.4741 213.015 59.8719 204.767 61.0103C195.301 62.3178 194.68 66.4093 194.853 71.7981C195.193 82.3507 200.756 82.3863 207.588 81.4435C214.419 80.4994 219.765 78.9581 217.234 68.7079Z" fill="#F5B18B"/>
<path opacity="0.35" d="M207.156 78.3189C201.324 79.1245 196.416 79.2147 194.893 72.6557C195.504 82.3507 200.947 82.3596 207.587 81.4434C214.227 80.5273 219.464 79.0432 217.426 69.5452C217.738 76.2707 212.99 77.5133 207.156 78.3189Z" fill="#F29B6B"/>
<path d="M212.489 77.3152C212.075 74.3152 209.466 71.9823 206.466 72.3965C203.466 72.8108 201.212 75.8158 201.627 78.8145C202.041 81.8145 204.535 81.9276 207.535 81.5134C210.534 81.1004 212.903 80.3151 212.489 77.3152Z" fill="#F7CFB9"/>
<path opacity="0.35" d="M207.293 79.7737C204.605 80.1447 202.324 80.0901 201.581 77.916C201.57 78.2146 201.584 78.5145 201.625 78.8157C202.039 81.8156 204.534 81.9287 207.534 81.5145C210.534 81.1003 212.903 80.315 212.489 77.3163C212.446 77.0063 212.378 76.7026 212.291 76.4091C212.183 78.7267 209.995 79.4014 207.293 79.7737Z" fill="#F7CFB9"/>
<path d="M208.375 72.6113C208.217 71.4728 207.323 71.8019 206.183 71.9582C205.045 72.1157 204.093 72.0408 204.251 73.1805C204.408 74.319 205.459 75.1157 206.597 74.9582C207.736 74.8006 208.531 73.7498 208.375 72.6113Z" fill="#F08C55"/>
<path d="M209.44 69.812C209.352 69.1729 208.886 68.7104 208.399 68.7764C207.913 68.8438 207.59 69.4155 207.677 70.0547C207.765 70.6938 208.231 71.1563 208.718 71.0903C209.205 71.0242 209.529 70.4511 209.44 69.812Z" fill="#F08C55"/>
<path d="M199.374 67.7663C199.374 67.7663 200.461 65.1894 203.299 65.934C201.765 66.1767 199.374 67.7663 199.374 67.7663Z" fill="#F29B6B"/>
<path d="M211.193 66.6748C211.193 66.6748 209.196 64.7155 206.865 66.4969C208.373 66.1297 211.193 66.6748 211.193 66.6748Z" fill="#F29B6B"/>
<path d="M203.569 77.5565C203.569 77.5565 203.596 77.5527 203.654 77.5514C203.707 77.5489 203.783 77.5464 203.879 77.5425C204.073 77.5362 204.347 77.5235 204.675 77.4981C204.839 77.4866 205.015 77.4676 205.202 77.4472C205.389 77.4282 205.585 77.3964 205.785 77.3659C205.986 77.3329 206.193 77.2948 206.4 77.2452C206.609 77.202 206.817 77.1436 207.024 77.0813C207.127 77.0483 207.229 77.0152 207.332 76.9822C207.432 76.9441 207.534 76.911 207.632 76.8704C207.729 76.8297 207.827 76.7916 207.92 76.7459C208.015 76.7039 208.108 76.6607 208.196 76.6137C208.24 76.5908 208.285 76.568 208.329 76.5451C208.372 76.5197 208.414 76.4955 208.456 76.4714C208.541 76.4256 208.621 76.3748 208.699 76.324C208.778 76.2757 208.851 76.2236 208.92 76.1715C208.991 76.122 209.06 76.0724 209.121 76.0203C209.249 75.9212 209.357 75.8196 209.456 75.7319C209.55 75.6404 209.632 75.5565 209.699 75.4892C209.825 75.3456 209.9 75.2643 209.9 75.2643L209.978 75.3177C209.978 75.3177 209.923 75.4142 209.818 75.5832C209.761 75.6633 209.693 75.7624 209.606 75.8704C209.562 75.9225 209.513 75.9796 209.463 76.0381C209.413 76.0978 209.351 76.1525 209.292 76.2134C209.233 76.2757 209.167 76.3354 209.097 76.3952C209.027 76.4561 208.954 76.5171 208.874 76.5743C208.797 76.634 208.715 76.695 208.629 76.7497C208.586 76.7776 208.543 76.8056 208.498 76.8348C208.452 76.8615 208.407 76.8882 208.361 76.9148C208.177 77.0241 207.977 77.1207 207.77 77.2071C207.563 77.2935 207.349 77.3735 207.132 77.4358C206.914 77.4981 206.695 77.5552 206.477 77.5972C206.258 77.6404 206.042 77.6709 205.832 77.6963C205.623 77.7204 205.419 77.7331 205.226 77.742C205.033 77.7522 204.851 77.7497 204.682 77.7471C204.346 77.7395 204.067 77.7141 203.874 77.6899C203.778 77.6798 203.701 77.6671 203.651 77.6594C203.605 77.6518 203.577 77.6505 203.577 77.6505L203.569 77.5565Z" fill="#F08C55"/>
<path d="M203.61 78.0787C203.57 78.0787 203.534 78.0533 203.52 78.0139C203.399 77.6569 203.528 77.2439 203.534 77.2261C203.55 77.1766 203.602 77.1486 203.652 77.1652C203.701 77.1804 203.729 77.2338 203.713 77.2833C203.711 77.2871 203.597 77.6556 203.697 77.953C203.714 78.0025 203.687 78.0559 203.638 78.0724C203.63 78.0762 203.62 78.0787 203.61 78.0787Z" fill="#F08C55"/>
<path d="M210.05 75.7192C210.009 75.7192 209.971 75.6925 209.959 75.6506C209.87 75.3482 209.566 75.1131 209.563 75.1105C209.521 75.0788 209.513 75.0191 209.545 74.9784C209.577 74.9365 209.637 74.9288 209.677 74.9606C209.691 74.972 210.036 75.2363 210.141 75.5972C210.156 75.648 210.127 75.7001 210.078 75.7141C210.067 75.7179 210.059 75.7192 210.05 75.7192Z" fill="#F1935F"/>
<path d="M204.026 70.5603C203.938 69.9211 203.472 69.4586 202.985 69.5247C202.498 69.5921 202.175 70.1638 202.263 70.803C202.351 71.4421 202.817 71.9046 203.304 71.8385C203.79 71.7712 204.113 71.1981 204.026 70.5603Z" fill="#F08C55"/>
<path d="M202.93 70.0851C202.911 69.9517 202.789 69.8589 202.656 69.8767C202.522 69.8945 202.43 70.0177 202.447 70.1512C202.465 70.2846 202.589 70.3773 202.722 70.3595C202.857 70.3405 202.949 70.2172 202.93 70.0851Z" fill="#F2DCD0"/>
<path d="M208.382 69.3317C208.363 69.1982 208.241 69.1055 208.108 69.1233C207.975 69.1411 207.882 69.2643 207.9 69.3977C207.919 69.5312 208.041 69.6239 208.174 69.6061C208.308 69.5883 208.402 69.4651 208.382 69.3317Z" fill="#F2DCD0"/>
<path d="M205.142 72.6124C205.124 72.479 205.001 72.3863 204.868 72.404C204.734 72.4218 204.642 72.5451 204.659 72.6785C204.677 72.8119 204.8 72.9047 204.934 72.8869C205.067 72.8691 205.16 72.7458 205.142 72.6124Z" fill="#F2DCD0"/>
<path d="M204.524 101.146C204.978 98.3491 203.079 95.7136 200.282 95.2597C197.484 94.8057 194.849 96.7052 194.395 99.5023C193.941 102.299 195.841 104.935 198.638 105.389C201.435 105.843 204.07 103.943 204.524 101.146Z" fill="#F5B18B"/>
<path d="M200.904 102.66C201.836 101.728 201.836 100.217 200.904 99.2852C199.972 98.3533 198.461 98.3533 197.529 99.2852C196.597 100.217 196.597 101.728 197.529 102.66C198.461 103.592 199.972 103.592 200.904 102.66Z" fill="#F7CFB9"/>
<path d="M196.882 98.9375C196.882 98.4419 196.481 98.0404 195.985 98.0404C195.489 98.0404 195.088 98.4419 195.088 98.9375C195.088 99.433 195.489 99.8345 195.985 99.8345C196.481 99.8345 196.882 99.433 196.882 98.9375Z" fill="#F7CFB9"/>
<path d="M199.47 97.1815C199.47 96.6859 199.069 96.2844 198.573 96.2844C198.078 96.2844 197.676 96.6859 197.676 97.1815C197.676 97.677 198.078 98.0786 198.573 98.0786C199.069 98.0773 199.47 97.6758 199.47 97.1815Z" fill="#F7CFB9"/>
<path d="M202.104 97.7354C202.104 97.2399 201.703 96.8384 201.207 96.8384C200.712 96.8384 200.31 97.2399 200.31 97.7354C200.31 98.231 200.712 98.6325 201.207 98.6325C201.703 98.6325 202.104 98.231 202.104 97.7354Z" fill="#F7CFB9"/>
<path d="M220.717 103.953C222.721 101.949 222.721 98.7005 220.717 96.6968C218.713 94.6931 215.464 94.6931 213.461 96.6968C211.457 98.7005 211.457 101.949 213.461 103.953C215.464 105.957 218.713 105.957 220.717 103.953Z" fill="#F5B18B"/>
<path d="M219.008 102.66C219.94 101.728 219.94 100.217 219.008 99.2851C218.076 98.3532 216.565 98.3532 215.633 99.2851C214.701 100.217 214.701 101.728 215.633 102.66C216.565 103.592 218.076 103.592 219.008 102.66Z" fill="#F7CFB9"/>
<path d="M219.663 98.9375C219.663 98.4419 220.065 98.0404 220.56 98.0404C221.056 98.0404 221.457 98.4419 221.457 98.9375C221.457 99.433 221.056 99.8345 220.56 99.8345C220.065 99.8345 219.663 99.433 219.663 98.9375Z" fill="#F7CFB9"/>
<path d="M217.073 97.1815C217.073 96.6859 217.475 96.2844 217.971 96.2844C218.466 96.2844 218.868 96.6859 218.868 97.1815C218.868 97.677 218.466 98.0786 217.971 98.0786C217.476 98.0773 217.073 97.6758 217.073 97.1815Z" fill="#F7CFB9"/>
<path d="M214.44 97.7354C214.44 97.2399 214.841 96.8384 215.337 96.8384C215.832 96.8384 216.234 97.2399 216.234 97.7354C216.234 98.231 215.832 98.6325 215.337 98.6325C214.841 98.6325 214.44 98.231 214.44 97.7354Z" fill="#F7CFB9"/>
<path d="M140.166 45.807C138.503 47.1336 136.144 47.1043 134.497 45.7587C127.437 39.9875 117.072 39.7079 109.651 45.624C102.841 51.0547 100.568 60.0661 103.374 67.8272C104.607 71.2338 103.494 75.0482 100.662 77.3062L98.9259 78.6899C95.3084 81.5742 94.715 86.8436 97.5981 90.4611C100.482 94.0786 105.752 94.672 109.369 91.7889L150.608 58.9073C152.332 57.5325 152.615 55.0204 151.241 53.2974L145.774 46.4423C144.402 44.7155 141.89 44.4322 140.166 45.807Z" fill="#EB854C"/>
<path d="M109.37 91.7875L150.609 58.9059C152.333 57.5311 152.616 55.0191 151.242 53.2961L150.361 52.1919C149.694 54.1309 148.849 55.7891 148.273 56.1029C147.007 56.7929 142.864 52.9365 137.376 57.3113C131.89 61.6861 135.296 68.9072 133.009 70.7305C130.723 72.5539 125.171 76.9808 123.994 77.9185C122.819 78.8563 116.928 74.1498 111.464 78.5056C106.001 82.8626 109.769 86.4813 105.656 89.7621C103.1 91.8002 98.7223 88.3479 95.7732 85.442C95.8139 87.2082 96.4123 88.9743 97.5978 90.4623C100.483 94.0772 105.753 94.6706 109.37 91.7875Z" fill="#F5B089"/>
<path d="M110.246 68.7153C105.449 62.6988 106.438 53.934 112.453 49.1373C118.47 44.3406 127.234 45.3292 132.031 51.3444L110.246 68.7153Z" fill="url(#paint1_linear)"/>
<path d="M111.922 47.2972L110.767 48.2177L121.398 61.5516L122.553 60.6311L111.922 47.2972Z" fill="#EB854C"/>
<path d="M118.824 93.3108C123.08 92.3698 125.767 88.157 124.826 83.9012C123.885 79.6455 119.672 76.9584 115.416 77.8994C111.161 78.8404 108.474 83.0532 109.415 87.309C110.356 91.5647 114.568 94.2518 118.824 93.3108Z" fill="#F1935F"/>
<path d="M119.289 87.7687C120.485 86.5728 120.485 84.634 119.289 83.4381C118.093 82.2422 116.154 82.2422 114.958 83.4381C113.762 84.634 113.762 86.5728 114.958 87.7687C116.154 88.9646 118.093 88.9646 119.289 87.7687Z" fill="#F4BA99"/>
<path d="M144.475 72.7554C148.748 71.8998 151.519 67.7418 150.663 63.4682C149.808 59.1946 145.65 56.4237 141.376 57.2793C137.103 58.1349 134.332 62.2929 135.187 66.5665C136.043 70.8401 140.201 73.611 144.475 72.7554Z" fill="#F08C55"/>
<path d="M145.64 66.493C146.452 65.0096 145.908 63.1485 144.425 62.336C142.942 61.5236 141.08 62.0674 140.268 63.5508C139.456 65.0342 139.999 66.8953 141.483 67.7078C142.966 68.5203 144.827 67.9764 145.64 66.493Z" fill="#F4BA99"/>
<path d="M145.988 46.7053L143.821 48.4321C143.195 48.9315 143.093 49.8425 143.591 50.469L144.913 52.1259C145.412 52.7523 146.323 52.854 146.95 52.3559L149.116 50.6291L145.988 46.7053Z" fill="#F4AD85"/>
<path d="M112.858 100.175C115.934 97.0993 115.934 92.1121 112.858 89.0361C109.782 85.9601 104.795 85.9601 101.719 89.0361C98.6425 92.1121 98.6425 97.0993 101.719 100.175C104.795 103.251 109.782 103.251 112.858 100.175Z" fill="#F1935F"/>
<path opacity="0.28" d="M118.213 68.6747C118.21 68.6696 118.209 68.6645 118.207 68.6582C118.147 68.4968 118.085 68.3355 118.021 68.1754C118.012 68.1538 118.003 68.1322 117.994 68.1093C117.936 67.9632 117.875 67.8183 117.813 67.6747C117.801 67.6468 117.789 67.6201 117.777 67.5921C117.715 67.4498 117.651 67.3088 117.586 67.1677C117.575 67.1423 117.562 67.1156 117.551 67.0902C117.48 66.9378 117.405 66.7853 117.33 66.6328C117.325 66.6214 117.32 66.6112 117.313 66.5998C117.147 66.2694 116.972 65.9416 116.785 65.6188C116.771 65.5934 116.756 65.568 116.74 65.5439C116.665 65.4143 116.588 65.2847 116.51 65.1563C116.481 65.1093 116.452 65.0623 116.423 65.0165C116.357 64.9098 116.289 64.8043 116.221 64.6976C116.185 64.643 116.149 64.5896 116.114 64.535C116.049 64.4371 115.983 64.3393 115.916 64.2415C115.877 64.1855 115.838 64.1296 115.799 64.0737C115.731 63.9772 115.663 63.8819 115.593 63.7878C115.553 63.7332 115.514 63.6786 115.473 63.6239C115.398 63.5235 115.321 63.4232 115.243 63.3228C115.208 63.277 115.172 63.23 115.137 63.1843C115.022 63.0394 114.905 62.8946 114.787 62.7523C114.786 62.751 114.785 62.7497 114.785 62.7485C112.27 59.7358 109.061 57.6481 105.588 56.5261C105.366 56.4537 105.142 56.3864 104.917 56.3216C104.911 56.3203 104.906 56.3177 104.899 56.3165C104.681 56.2542 104.461 56.1958 104.24 56.1411C104.233 56.1399 104.228 56.1386 104.222 56.1361C103.806 56.0331 103.387 55.9455 102.967 55.8705C95.6261 67.6074 103.313 83.7979 103.313 83.7979C103.313 83.7979 98.6629 89.7419 94.978 94.8562C96.2423 95.1574 97.5307 95.3365 98.8255 95.3886C98.8331 95.3886 98.8408 95.3886 98.8484 95.3899C99.0021 95.3963 99.1572 95.4001 99.3109 95.4026C99.33 95.4026 99.3477 95.4026 99.3668 95.4026C99.5104 95.4039 99.654 95.4051 99.7976 95.4039C99.8242 95.4039 99.8496 95.4026 99.8763 95.4026C100.012 95.4013 100.148 95.3975 100.284 95.3937C100.316 95.3924 100.349 95.3912 100.381 95.3899C100.512 95.3848 100.641 95.3785 100.772 95.3721C100.809 95.3696 100.846 95.367 100.881 95.3658C101.007 95.3581 101.133 95.3492 101.259 95.3391C101.298 95.3353 101.338 95.3327 101.377 95.3289C101.5 95.3175 101.623 95.306 101.747 95.2933C101.765 95.2908 101.782 95.2895 101.8 95.2882C101.801 95.2882 101.803 95.287 101.804 95.287C105.546 94.8766 109.208 93.4001 112.311 90.8131C113.823 89.5526 115.097 88.113 116.133 86.5513C116.139 86.5412 116.146 86.5323 116.152 86.5221C116.223 86.4141 116.293 86.3061 116.362 86.1981C116.362 86.1981 116.362 86.1981 116.362 86.1968C119.668 80.9783 120.343 74.4701 118.213 68.6747Z" fill="#ED925E"/>
<path d="M97.9437 83.8113C106.372 76.782 107.48 64.219 100.418 55.751C93.3558 47.2831 80.7981 46.1169 72.3695 53.1462C63.9409 60.1755 62.8331 72.7385 69.8953 81.2065C76.9574 89.6744 89.5151 90.8406 97.9437 83.8113Z" fill="#FCEDE5"/>
<path d="M85.5562 79.5311L82.3402 72.6163C82.3161 72.5642 82.264 72.5299 82.2055 72.5273L74.306 72.3126C74.2285 72.31 74.1611 72.3672 74.1497 72.4435L73.2145 78.9695C73.2081 79.0139 73.2208 79.0597 73.2513 79.0927C73.6821 79.573 76.9807 83.1448 80.0404 83.6696C80.0581 83.6721 80.0759 83.6721 80.0925 83.6696C80.588 83.5908 84.3059 82.5705 85.5562 79.6556C85.5753 79.6175 85.574 79.5705 85.5562 79.5311Z" fill="#F08C55"/>
<path d="M71.1917 65.0801C71.3734 62.624 74.7647 58.6647 75.259 58.0993C75.2959 58.0573 75.306 57.9976 75.287 57.9455C75.0735 57.3737 73.8601 54.1476 73.7165 54.1577C72.9935 54.2086 70.4954 55.8502 68.8448 56.9875C68.8296 56.9976 68.8156 57.0116 68.8055 57.0268C68.1625 57.9468 67.606 58.9112 67.1358 59.9087C67.1282 59.9252 67.1231 59.943 67.1219 59.962C67.0164 61.2034 66.9262 62.8832 67.0075 64.4842C67.0113 64.5655 67.0787 64.6291 67.1612 64.6291C68.1422 64.6342 70.3467 65.0776 71.01 65.2199C71.099 65.2364 71.1854 65.1716 71.1917 65.0801Z" fill="#F08C55"/>
<path d="M91.2093 49.5325C87.6147 48.3699 83.7405 48.2428 80.0658 49.1945C79.8841 49.2415 79.9298 49.5096 80.1166 49.4969C84.3974 49.1882 87.5384 50.0712 87.8942 50.1767C87.9171 50.1831 87.9412 50.1843 87.9641 50.1805L91.2131 49.596L91.2093 49.5325Z" fill="#F08C55"/>
<path d="M100.138 55.8667C100.231 56.8299 100.335 58.0344 100.354 58.2581C100.356 58.2822 100.364 58.3051 100.377 58.3254C100.625 58.7168 103.133 62.6634 103.924 63.6126C104.021 63.7295 104.12 63.84 104.221 63.9442C104.329 64.0573 104.519 63.9544 104.481 63.8019C103.778 60.9353 102.428 58.1793 100.409 55.7575C100.407 55.7562 100.406 55.7549 100.406 55.7537C100.309 55.6406 100.124 55.7193 100.138 55.8667Z" fill="#F08C55"/>
<path d="M101.987 79.2032L103.01 72.6302C103.025 72.5336 102.946 72.4434 102.847 72.4409L98.536 72.3621C98.4763 72.3608 98.4229 72.3939 98.3988 72.4472C98.0684 73.1702 95.7126 78.2159 93.8118 79.3061C93.7381 79.3481 93.7177 79.4446 93.7647 79.5209C95.076 81.6085 95.907 82.855 95.733 83.2782C95.6771 83.4141 95.7355 83.4827 95.9706 83.3671L101.541 79.8767C101.695 79.6543 101.843 79.4307 101.987 79.2032Z" fill="#F08C55"/>
<path d="M87.4506 87.9948C86.0237 87.5513 83.8179 86.9656 82.4583 86.963C82.4519 86.963 82.4456 86.963 82.4392 86.9643C81.3274 87.0901 80.3452 87.2032 79.593 87.2908C79.4278 87.3099 79.4075 87.5437 79.5663 87.5907C82.1127 88.3442 84.7861 88.5843 87.4214 88.2959C87.5879 88.2769 87.6095 88.0443 87.4506 87.9948Z" fill="#F08C55"/>
<path d="M69.8094 81.1195L69.2796 78.6303L66.272 74.7535C67.0293 77.0127 68.2046 79.1728 69.8094 81.1195Z" fill="#F08C55"/>
<path d="M95.0454 65.3228C95.3237 64.7574 96.8167 61.5515 96.588 58.4741C96.5842 58.4296 96.5613 58.3877 96.5257 58.361C90.9349 54.2098 91.2767 54.4436 89.3746 53.6749C89.3403 53.6609 89.3021 53.6596 89.2666 53.6711C88.7647 53.8464 85.2908 55.1882 83.32 57.9239C83.2857 57.9709 83.2819 58.0357 83.3098 58.0865C85.9273 63.0128 86.5309 64.7116 86.6541 65.1195C86.6732 65.183 86.7317 65.2262 86.7977 65.2275L94.9044 65.4079C94.9641 65.4105 95.0188 65.3774 95.0454 65.3228Z" fill="#F08C55"/>
<path opacity="0.6" d="M87.1039 70.338C76.5881 70.338 70.4039 65.319 66.8817 60.4677C63.9808 67.155 64.8817 75.2134 69.8868 81.2159C72.8258 84.7394 76.7165 86.9973 80.8651 87.9287C83.151 87.9516 85.5652 88.0049 88.0823 88.1193C88.2424 88.1269 88.3987 88.1333 88.5537 88.1396C91.9006 87.5767 95.1433 86.1485 97.9336 83.8207C104.058 78.7127 106.316 70.6823 104.383 63.4244C100.663 67.202 95.1776 70.338 87.1039 70.338Z" fill="#FCEBE1"/>
<path d="M131.457 78.5234H63.658L69.691 121.827C70.0785 124.607 72.4559 126.676 75.2627 126.676H119.853C122.66 126.676 125.037 124.607 125.425 121.827L131.457 78.5234Z" fill="#F7CEB7"/>
<path opacity="0.4" d="M97.9805 118.54C81.8282 118.54 71.6249 105.484 65.8677 94.3811L69.691 121.826C70.0786 124.606 72.4559 126.674 75.2628 126.674H119.853C122.66 126.674 125.038 124.606 125.425 121.826L127.99 103.412C120.457 111.417 110.293 118.54 97.9805 118.54Z" fill="#F7CEB7"/>
<path d="M64.6605 85.7165H130.455L131.457 78.5234H63.658L64.6605 85.7165Z" fill="#F7CEB7"/>
<path d="M132.776 83.1461H62.3403C61.1535 83.1461 60.1917 82.1842 60.1917 80.9974V76.0495C60.1917 74.8628 61.1535 73.9009 62.3403 73.9009H132.776C133.962 73.9009 134.924 74.8628 134.924 76.0495V80.9974C134.924 82.1842 133.962 83.1461 132.776 83.1461Z" fill="#F2DCD0"/>
<path d="M104.492 92.8767H90.6222C87.2169 92.8767 84.457 95.6365 84.457 99.0419H110.658C110.658 95.6365 107.898 92.8767 104.492 92.8767Z" fill="#ED8E59"/>
<path d="M9.38807 119.648H-21.3703C-22.4656 119.648 -23.3538 120.536 -23.3538 121.631V140.445C-23.3538 141.541 -22.4656 142.429 -21.3703 142.429H9.38807C10.4834 142.429 11.3715 141.541 11.3715 140.445V121.631C11.3703 120.536 10.4834 119.648 9.38807 119.648Z" fill="#F4AC83"/>
<path d="M0.737116 125.302L0.729492 125.099C1.36481 124.527 1.99378 124.153 2.61767 123.979C3.46137 124.277 4.11829 124.599 4.59097 124.947C5.34191 125.514 5.76377 126.256 5.8578 127.174C5.95564 128.141 5.59858 129.34 4.78664 130.77C5.0611 131.026 5.29363 131.256 5.48549 131.458C5.67736 131.662 5.82476 131.845 5.92641 132.007C6.1907 132.414 6.34953 132.879 6.4029 133.405C6.46262 133.992 6.4461 134.458 6.35207 134.801C6.25804 135.144 6.05347 135.487 5.73709 135.828C5.07381 136.551 4.53125 136.933 4.10813 136.977C3.67611 137.021 2.95438 136.865 1.94295 136.51L1.9239 136.327C2.192 136.016 2.41436 135.739 2.59098 135.499C2.7676 135.259 2.89594 135.066 2.97472 134.922C3.21614 134.514 3.31397 134.096 3.27077 133.668C3.24663 133.435 3.16404 133.19 3.02299 132.932C2.88068 132.674 2.71296 132.432 2.51855 132.204C2.32415 131.977 2.11703 131.77 1.89721 131.581C1.67739 131.393 1.47536 131.241 1.29238 131.124L1.29493 130.902C1.81208 130.429 2.18692 129.958 2.42198 129.489C2.72948 128.889 2.84257 128.197 2.76251 127.414C2.64562 126.277 1.97091 125.573 0.737116 125.302Z" fill="#ED8E59"/>
<path d="M153.328 154.145C162.706 144.767 162.706 129.564 153.328 120.186C143.951 110.809 128.747 110.809 119.37 120.186C109.992 129.564 109.992 144.767 119.37 154.145C128.747 163.522 143.951 163.522 153.328 154.145Z" fill="#F6B794"/>
<path d="M136.524 142.932C130.583 134.477 125.846 125.851 122.416 117.609C112.371 124.752 109.289 138.518 115.655 149.34C122.379 160.77 137.097 164.586 148.528 157.862C148.542 157.854 148.556 157.845 148.57 157.837C144.406 153.364 140.348 148.373 136.524 142.932Z" fill="#F2DCD0"/>
<path d="M133.543 143.164C127.741 134.909 123.504 126.431 121.008 118.691C112.095 126.076 109.596 139.041 115.655 149.34C122.078 160.26 135.795 164.228 146.974 158.701C142.323 154.378 137.74 149.136 133.543 143.164Z" fill="#F4AC83"/>
<path opacity="0.3" d="M145.214 140.145C134.045 146.716 119.741 143.223 112.818 132.398C111.68 138.001 112.528 144.026 115.654 149.341C122.378 160.772 137.096 164.587 148.526 157.863C159.957 151.139 163.773 136.421 157.049 124.99C156.894 124.727 156.734 124.471 156.571 124.217C155.265 130.661 151.33 136.548 145.214 140.145Z" fill="#F1905B"/>
<path d="M16.7961 75.6237L14.2282 77.7686C13.5382 78.3455 13.5204 79.4001 14.1913 79.9998L25.6525 90.2437L27.0387 89.0862L18.9994 75.9846C18.528 75.2171 17.4874 75.0469 16.7961 75.6237Z" fill="#F7CEB7"/>
<path d="M24.6406 88.8459C25.3686 88.5372 25.9849 88.3402 26.4754 88.1699L21.821 80.5842C17.5682 81.6998 15.4081 79.3263 14.3967 77.6274L14.2277 77.7685C13.5377 78.3454 13.5199 79.4 14.1908 79.9997L24.281 89.0175C24.3966 88.9565 24.516 88.898 24.6406 88.8459Z" fill="#F7CEB7"/>
<path d="M22.9009 81.6134L19.0356 84.8421C18.5147 85.2767 18.4588 86.0569 18.9124 86.5613L20.4854 88.3148C20.9162 88.7951 21.6506 88.8472 22.1449 88.4342L25.8818 85.3123C26.3774 84.8993 26.4562 84.1674 26.0597 83.6579L24.615 81.7977C24.1995 81.2628 23.4219 81.1789 22.9009 81.6134Z" fill="#F6B794"/>
<path d="M26.3392 82.6071L19.4015 88.4025C19.1017 88.6528 18.9797 89.0581 19.0902 89.433L20.352 93.7074L31.3913 84.4864L27.4104 82.4839C27.0597 82.3085 26.6391 82.3568 26.3392 82.6071Z" fill="#FDF0E9"/>
<path d="M30.4154 83.9958C24.4929 90.5752 21.7026 89.1419 20.5069 87.4799L19.4028 88.4024C19.1029 88.6527 18.9809 89.0581 19.0915 89.4329L20.3532 93.7074L31.3925 84.4863L30.4154 83.9958Z" fill="#FDF0E9"/>
<path d="M34.1524 96.4013L31.5844 98.5461C30.8944 99.123 33.5602 102.326 35.9084 104.245L43.597 110.53L43.8067 110.354L38.991 101.669C37.5196 99.0188 34.8423 95.8244 34.1524 96.4013Z" fill="#F7CEB7"/>
<path d="M34.46 107.381C35.6963 108.728 38.371 108.398 40.5057 106.617C42.6391 104.834 43.4383 102.26 42.3341 100.804L34.46 107.381Z" fill="#EB8146"/>
<path opacity="0.35" d="M34.46 107.381C35.6963 108.728 38.371 108.398 40.5057 106.617C42.6391 104.834 43.4383 102.26 42.3341 100.804L34.46 107.381Z" fill="#EB8146"/>
<path d="M31.9037 83.4496L19.2392 94.0276C18.6357 94.5308 18.3231 95.3008 18.4019 96.0835L19.623 108.105L45.6863 86.3339L34.0752 82.9921C33.3205 82.7749 32.5073 82.9464 31.9037 83.4496Z" fill="#F3A173"/>
<path d="M20.6252 107.646C24.4613 111.825 32.7637 110.806 39.385 105.275C46.0063 99.7442 48.4865 91.757 45.0571 87.2373L20.6252 107.646Z" fill="#EB8146"/>
<path opacity="0.35" d="M36.3445 101.635C31.7283 105.491 26.2963 107.153 22.1299 106.391L20.6267 107.646C24.4628 111.825 32.7651 110.806 39.3864 105.275C46.0077 99.7442 48.488 91.757 45.0586 87.2373L43.5554 88.4927C43.563 92.729 40.9607 97.7785 36.3445 101.635Z" fill="#EB8146"/>
<path d="M19.22 104.128L41.845 85.2272L40.8437 84.9401L19.1145 103.091L19.22 104.128Z" fill="#FDF0E9"/>
<path opacity="0.35" d="M45.6875 86.3338L37.8324 84.0734C37.3432 87.3542 35.577 91.114 31.1933 94.7747C25.2302 99.7556 21.2188 100.033 18.708 99.086L19.6241 108.105L45.6875 86.3338Z" fill="#F3A173"/>
<path d="M46.6353 86.5551L19.6736 109.077C19.3013 109.388 18.7473 109.339 18.436 108.967C18.1247 108.594 18.1743 108.04 18.5466 107.729L45.5083 85.2069C45.8806 84.8956 46.4346 84.9452 46.7459 85.3175C47.0572 85.6897 47.0076 86.2437 46.6353 86.5551Z" fill="#F7CEB7"/>
<path d="M292.739 149.613L278.818 135.692L264.897 149.613H292.739Z" fill="#EB854C"/>
<path d="M505.153 -86.478H273.227C271.596 -86.478 270.274 -85.1553 270.274 -83.5251V41.2466H508.106V-83.5251C508.106 -85.1566 506.783 -86.478 505.153 -86.478Z" fill="#FCEDE5"/>
<path d="M503.191 -82.9023H275.188V37.6711H503.191V-82.9023Z" fill="#F6C5AA"/>
<path d="M501.349 -81.1274H277.033V35.8946H501.349V-81.1274Z" fill="#F6C5AA"/>
<path d="M514.029 45.6697H264.258C263.143 45.6697 262.239 44.7663 262.239 43.6506V41.0725C262.239 39.9582 263.142 39.0535 264.258 39.0535H514.03C515.144 39.0535 516.049 39.9569 516.049 41.0725V43.6506C516.048 44.7663 515.144 45.6697 514.029 45.6697Z" fill="#FCEDE5"/>
</g>
<defs>
<linearGradient id="paint0_linear" x1="26.0673" y1="24.2079" x2="26.0673" y2="-16.5526" gradientUnits="userSpaceOnUse">
<stop offset="0.00149474" stop-color="#F2DCD0"/>
<stop offset="1" stop-color="#F5C0A3"/>
</linearGradient>
<linearGradient id="paint1_linear" x1="147.338" y1="92.89" x2="108.4" y2="44.0525" gradientUnits="userSpaceOnUse">
<stop offset="0.00149474" stop-color="#F2DCD0"/>
<stop offset="1" stop-color="#F5C0A3"/>
</linearGradient>
</defs>
</svg>
