<svg width="279" height="142" viewBox="0 0 279 142" fill="none" xmlns="http://www.w3.org/2000/svg">
<mask id="mask0" mask-type="alpha" maskUnits="userSpaceOnUse" x="-76" y="-289" width="431" height="431">
<circle cx="139.5" cy="-73.5" r="215.5" fill="#0FC1A4"/>
</mask>
<g mask="url(#mask0)">
<path d="M279 -14.7444H-0.405518V173.565H279V-14.7444Z" fill="#9CAFDF"/>
<path d="M265.128 8.23218H114.629V95.1983H265.128V8.23218Z" fill="#DBE0EF"/>
<path d="M258.964 14.0922H120.8V89.0339H258.964V14.0922Z" fill="#ECEFF7"/>
<path d="M278.696 132.517H-0.709961V137.145H278.696V132.517Z" fill="#DBE0EF"/>
<path d="M278.696 137.145H-0.709961V192.964H278.696V137.145Z" fill="#B0BFE5"/>
<path d="M168.594 21.8064H128.196V78.5523H168.594V21.8064Z" fill="#DBE0EF"/>
<path d="M223.492 21.8064H181.552V78.5523H223.492V21.8064Z" fill="#DBE0EF"/>
<path d="M253.097 21.8064H229.353V40.0022H253.097V21.8064Z" fill="#DBE0EF"/>
<path d="M253.097 49.868H229.352V78.5454H253.097V49.868Z" fill="#DBE0EF"/>
<path d="M137.785 69.9454L173.707 60.0796L188.201 96.0007L155.026 116.48L137.785 69.9454Z" fill="#F7F8FB"/>
<path d="M173.437 61.2419L187.606 96.3674L188.201 96.0007L173.707 60.0796L137.785 69.9454L138.152 70.9348L173.437 61.2419Z" fill="white"/>
<path d="M28.4795 122.52C28.4795 122.52 25.8573 133.776 25.0894 136.55C24.3214 139.325 22.1628 145.8 22.1628 145.8L27.8706 144.258L28.4795 122.52Z" fill="#F7F8FB"/>
<path d="M53.3862 59.3461C53.3862 59.3461 54.2095 66.3961 56.7763 69.9315C59.3569 73.4876 65.0094 79.3476 72.8758 74.4147C79.4207 70.3051 80.929 67.5723 80.929 67.5723L80.3132 53.7975L74.3494 43.3159L68.5932 42.0844L55.2335 43.1152L53.3862 59.3461Z" fill="#C6CFE6"/>
<path d="M80.9357 67.5724C80.9357 67.5724 79.4275 70.3122 72.8825 74.4149C72.8618 74.4287 72.841 74.4426 72.8203 74.4495C72.841 73.8199 72.924 73.3909 72.924 73.3909L58.6718 71.8135C58.6718 71.8135 58.7064 71.9934 58.7479 72.284C58.3743 71.8965 58.0284 71.5022 57.7171 71.1217C57.3711 70.7065 57.0667 70.3053 56.79 69.9247C55.5654 68.2435 54.7421 65.7598 54.2094 63.6289C53.6213 61.2766 53.3999 59.3394 53.3999 59.3394L55.2472 43.1015L68.6069 42.0707L74.3631 43.3022L80.3269 53.7838L80.9357 67.5724Z" fill="#CCD4E8"/>
<path d="M64.2832 44.1325C64.2832 44.1325 65.5147 49.4805 61.1975 53.9983C56.8803 58.523 53.1789 61.1936 53.1789 61.1936L54.8255 65.6145C54.8255 65.6145 55.3375 67.9807 57.1917 70.3399C58.6584 72.2148 60.4295 73.8891 60.4295 73.8891L52.1549 91.6214C52.1549 91.6214 28.9501 125.294 28.9225 125.335C28.7287 125.619 26.0167 124.727 25.7538 124.644C23.4153 123.924 21.146 122.776 19.3887 121.046C16.5175 118.209 14.9885 114.003 15.5766 109.983C15.9848 107.243 17.5276 104.012 21.9278 102.103C21.9278 102.103 17.6106 96.7549 21.7202 90.1823C25.8299 83.6028 37.7713 78.2201 40.0336 68.5549C42.296 58.8897 43.5137 42.901 51.1241 38.5838C58.7276 34.2666 63.6674 38.7913 63.6674 38.7913L64.2832 44.1325Z" fill="#7690D3"/>
<path d="M58.0703 69.468C57.6691 68.9561 57.33 68.4372 57.0464 67.9529C57.4131 68.8177 57.9804 69.9108 58.8452 71.0109C59.5993 71.9726 60.4365 72.8858 61.0661 73.5431L61.3082 73.0173C61.3082 73.0103 59.5371 71.343 58.0703 69.468Z" fill="#A7B8E3"/>
<path d="M23.3805 90.8463C27.4901 84.2668 39.4315 78.8842 41.6939 69.2189C43.9563 59.5537 45.1739 43.565 52.7843 39.2478C58.7689 35.8508 63.0999 37.9263 64.6773 38.9641L64.5528 37.9056C64.5528 37.9056 59.6198 33.3809 52.0094 37.698C44.406 42.0152 43.1814 58.0109 40.919 67.6692C38.6566 77.3344 26.7222 82.717 22.6056 89.2966C19.347 94.5132 21.388 98.9549 22.3704 100.567C21.4987 98.4152 20.8691 94.8591 23.3805 90.8463Z" fill="#A7B8E3"/>
<path d="M17.23 110.647C17.6381 107.907 19.181 104.676 23.5812 102.767C23.5812 102.767 23.1453 102.227 22.6818 101.279C18.3784 103.196 16.8564 106.385 16.4551 109.104C16.033 111.969 16.6903 114.93 18.1432 117.42C17.2438 115.296 16.8909 112.944 17.23 110.647Z" fill="#A7B8E3"/>
<path d="M55.4962 62.7364C56.5409 64.8328 56.022 67.5379 54.2716 68.4166C52.5212 69.2883 50.2519 68.3059 49.2072 66.2096C48.1625 64.1132 48.7298 61.7056 50.4871 60.8338C52.2306 59.9552 54.4515 60.6401 55.4962 62.7364Z" fill="#CCD4E8"/>
<path d="M101.671 80.0188C100.827 79.5137 99.9618 79.1194 98.9863 78.9533C98.0662 78.7942 97.1252 78.7873 96.1912 78.8772C95.2157 78.9672 94.2333 79.2093 93.3408 79.6244C92.8288 79.8666 92.3929 80.171 91.9847 80.5238C92.981 83.2359 92.8634 86.0794 92.8634 86.0794L82.5824 86.6952L73.3323 86.287L72.7166 74.3663C72.7166 74.3663 75.7123 71.9794 77.442 68.707C77.781 69.039 78.1892 69.2674 78.6527 69.3573C80.3062 69.6894 82.0013 68.1466 82.451 65.9119C82.4787 65.7597 82.5063 65.6005 82.5202 65.4483C82.6309 64.452 82.4648 63.5111 82.0912 62.7708C81.69 61.989 81.0534 61.4286 80.2647 61.2764C79.8358 61.1934 79.4068 61.228 78.9917 61.3802C79.1024 57.4574 78.4521 53.2855 76.7294 51.8534C74.2594 49.7986 73.3393 51.1338 68.607 49.9023C63.8816 48.6708 63.6741 46.2009 63.6741 46.2009C63.6741 46.2009 59.5368 38.8119 61.1349 37.5666C61.2941 37.442 61.4878 37.3175 61.7092 37.193C64.1722 35.83 70.5788 34.5362 76.418 39.6214C82.4372 44.8656 82.2227 58.9172 82.873 66.8666C82.9076 67.3302 82.9491 67.7729 82.9976 68.195C83.8209 75.7985 88.5462 75.1827 90.8086 78.2684C91.2375 78.8495 91.5696 79.486 91.8395 80.1433C92.2062 79.8043 92.6489 79.5276 93.064 79.3062C93.9358 78.8426 94.8905 78.5382 95.873 78.4206C97.8655 78.1854 100.073 78.8149 101.698 79.9842C101.726 79.9911 101.698 80.0326 101.671 80.0188Z" fill="#7690D3"/>
<path d="M72.917 73.3911C72.917 73.3911 72.834 73.82 72.8132 74.4496C66.5865 78.3171 61.7505 75.4182 58.7409 72.291C58.6994 72.0004 58.6648 71.8206 58.6648 71.8206L72.917 73.3911Z" fill="#CCD4E8"/>
<path d="M76.4111 82.233L74.5639 86.4118L68.8768 87.9892L60.3809 85.5885L56.2712 78.9397C56.2712 78.9397 57.987 77.7774 58.6028 76.2C59.0663 75.0238 58.8726 73.1558 58.7481 72.291C60.7821 74.3251 64.1584 75.9994 67.7353 75.8402C69.4442 75.7641 70.8002 75.5842 72.8204 74.249C72.8066 74.7679 72.8342 75.6188 72.9934 76.2692C73.3324 77.7082 74.979 78.1856 74.979 78.1856L76.4111 82.233Z" fill="#BAC5E0"/>
<path d="M62.0894 38.5145C62.0894 38.5145 60.8579 35.9823 56.0564 36.1829C51.2619 36.3905 48.0378 40.2926 48.0378 40.2926C48.0378 40.2926 51.1235 34.7439 56.6722 35.1521C62.2209 35.5603 62.0894 38.5145 62.0894 38.5145Z" fill="#B9C6E9"/>
<path d="M20.2878 101.383C20.2878 101.383 18.0254 97.0663 19.1601 92.7491C20.2878 88.432 26.4592 84.3223 31.0807 79.6938C35.7093 75.0653 35.7093 74.0414 35.7093 74.0414C35.7093 74.0414 30.1606 80.3096 26.1478 83.2915C23.1728 85.5054 18.0254 89.4559 17.4097 93.7731C16.7939 98.0972 20.2878 101.383 20.2878 101.383Z" fill="#B9C6E9"/>
<path d="M99.5188 109.388V126.352L96.1979 161.34L95.5061 168.597L92.4758 182.759C89.5838 182.441 84.0697 181.715 84.0697 181.715L83.8345 181.68C83.8345 181.68 79.3236 181.016 77.1581 180.649C61.9096 178.069 49.6292 174.395 39.4589 169.725L39.1822 169.593C39.1822 169.593 39.1891 169.427 39.1891 169.344C39.2929 166.937 39.4243 164.1 39.5835 161.367C39.8879 156.213 40.4414 152.352 40.9256 149.765C41.4238 147.094 41.8527 145.773 41.8527 145.773C41.8527 145.773 33.0523 100.941 39.1199 93.2195C45.9001 84.5851 56.271 78.9396 56.271 78.9396C56.271 78.9396 60.9825 85.9896 68.9942 85.6367C77.8499 85.2493 74.1624 77.8465 74.107 77.7427C74.19 77.7773 78.3342 79.3616 83.2118 81.195C88.1447 83.0492 92.116 85.021 92.116 85.021L99.5188 109.388Z" fill="#8CA2DA"/>
<g opacity="0.16">
<path opacity="0.16" d="M92.1164 85.0278C92.1164 85.0278 88.1452 83.0491 83.2122 81.2019C78.3277 79.3684 74.1904 77.7841 74.1074 77.7495C74.1213 77.7841 74.5018 78.5451 74.737 79.5829C76.3905 80.2125 78.6322 81.0635 81.0606 81.9698C85.9935 83.824 89.9647 85.7958 89.9647 85.7958L97.3676 110.156V127.12L94.0467 162.107L93.3548 169.365L90.5321 182.531C91.2377 182.614 91.9088 182.697 92.4762 182.759L95.5065 168.597L96.1984 161.339L99.5192 126.352V109.388L92.1164 85.0278Z" fill="white"/>
</g>
<path d="M38.4975 94.1468C38.4975 94.1468 43.2783 85.3602 48.3634 85.5125C53.4485 85.6647 57.9248 87.671 57.1499 101.55C56.382 115.428 52.5284 133.313 52.5284 133.313L38.8089 139.021L33.1011 137.014L38.4975 94.1468Z" fill="#F7F8FB"/>
<path d="M48.3636 85.5123C46.7931 85.4639 45.2572 86.2665 43.8804 87.4011C44.9458 86.7231 46.0805 86.301 47.2359 86.3356C52.321 86.4879 56.7973 88.4942 56.0224 102.373C55.3167 115.048 52.0373 131.071 51.4769 133.748L52.5286 133.313C52.5286 133.313 56.3822 115.428 57.1571 101.55C57.925 87.6709 53.4556 85.6715 48.3636 85.5123Z" fill="white"/>
<path opacity="0.28" d="M59.2253 70.9209C58.7272 71.1008 58.2152 71.17 57.7033 71.1354C57.3573 70.7203 57.0529 70.319 56.7762 69.9385C55.5516 68.2573 54.7283 65.7735 54.1956 63.6426C54.6383 62.9784 55.261 62.4596 56.029 62.1759C58.153 61.401 60.5952 62.7294 61.4739 65.1439C62.3664 67.5516 61.3563 70.1391 59.2253 70.9209Z" fill="#8CA2DA"/>
<path d="M83.8345 181.68L84.0697 181.715C84.0697 181.715 83.8691 180.712 83.7307 180.006C82.6445 174.52 80.1262 161.61 80.0155 158.635C79.8079 153.39 80.9426 140.543 80.9426 140.543L77.0336 138.176L73.7473 138.488C73.7473 138.488 72.4397 148.935 72.1422 154.961C72.0868 156.109 72.0661 157.092 72.1007 157.818C72.1491 158.884 72.4673 160.759 72.924 163C74.1831 169.165 76.487 178.096 77.1581 180.649C79.3167 181.016 83.8345 181.68 83.8345 181.68Z" fill="#CCD4E8"/>
<path d="M120.863 132.634C120.863 132.634 122.157 142.092 122.157 144.555C122.157 147.025 122.157 150.415 122.51 153.189C122.862 155.964 122.98 160.281 122.98 164.494C122.98 168.708 123.098 177.038 122.392 179.293C121.686 181.555 120.745 182.683 120.393 182.483C120.04 182.275 120.51 179.293 120.51 178.269C120.51 177.238 120.04 176.83 119.922 178.062C119.804 179.293 119.099 180.428 118.628 180.116C118.158 179.805 118.379 176.415 118.144 173.952C117.909 171.482 116.989 163.879 116.871 158.434C116.753 152.989 114.283 140.037 113.931 135.616C113.578 131.195 120.863 132.634 120.863 132.634Z" fill="#CCD4E8"/>
<g opacity="0.22">
<path opacity="0.22" d="M122.98 164.501C122.98 160.288 122.862 155.971 122.509 153.196C122.156 150.422 122.156 147.032 122.156 144.562C122.156 142.092 120.863 132.641 120.863 132.641C120.863 132.641 115.923 131.666 114.373 133.79C116.379 132.635 120.039 133.361 120.039 133.361C120.039 133.361 121.333 142.819 121.333 145.282C121.333 147.752 121.333 151.142 121.686 153.916C122.039 156.69 122.156 161.008 122.156 165.221C122.156 169.434 122.274 177.764 121.568 180.02C121.222 181.127 120.821 181.964 120.454 182.51C120.849 182.566 121.721 181.438 122.385 179.3C123.097 177.038 122.98 168.715 122.98 164.501Z" fill="white"/>
</g>
<path d="M82.4372 65.9052C81.9945 68.1329 80.2925 69.6758 78.639 69.3506C78.1754 69.2607 77.7672 69.0323 77.4282 68.7003C77.8641 67.8769 78.2169 67.0052 78.4245 66.092C78.7358 64.7221 78.9295 63.0686 78.978 61.3735C79.3931 61.2282 79.822 61.1867 80.251 61.2697C81.9045 61.5949 82.887 63.6705 82.4372 65.9052Z" fill="#BFCBEA"/>
<path opacity="0.28" d="M78.9851 61.3666C78.9366 63.0685 78.7429 64.7221 78.4316 66.085C78.224 66.9914 77.8712 67.87 77.4353 68.6933C76.5566 67.8423 76.1415 66.3203 76.4598 64.7082C76.7919 63.0547 77.8089 61.7817 78.9851 61.3666Z" fill="#8CA2DA"/>
<path d="M64.0891 60.1419C64.179 60.9514 63.8054 61.664 63.2519 61.7263C62.6984 61.7885 62.1726 61.1866 62.0827 60.3702C61.9928 59.5608 62.3664 58.8481 62.9198 58.7859C63.4733 58.7305 63.9922 59.3324 64.0891 60.1419Z" fill="#7690D3"/>
<path d="M76.6259 59.5262C76.7159 60.3357 76.3423 61.0483 75.7888 61.1105C75.2353 61.1728 74.7095 60.5709 74.6196 59.7545C74.5296 58.945 74.9032 58.2324 75.4567 58.1702C76.0102 58.1079 76.536 58.7167 76.6259 59.5262Z" fill="#7690D3"/>
<path d="M64.4143 57.6375L60.9688 58.5369C60.5676 58.6407 60.1525 58.3986 60.0487 57.9973C59.9449 57.596 60.1871 57.1809 60.5883 57.0771L64.0338 56.1777C64.435 56.0739 64.8502 56.3161 64.9539 56.7174C65.0577 57.1186 64.8156 57.5337 64.4143 57.6375Z" fill="#A9B9E3"/>
<path d="M76.6185 57.7273L73.8027 57.1047C73.3945 57.0147 73.1385 56.6135 73.2284 56.2053C73.3184 55.7971 73.7197 55.5411 74.1278 55.631L76.9437 56.2537C77.3519 56.3436 77.6079 56.7449 77.5179 57.1531C77.428 57.5544 77.0267 57.8104 76.6185 57.7273Z" fill="#A9B9E3"/>
<path d="M69.9767 70.001C68.0672 70.1048 66.4136 69.15 65.6526 68.6104C65.4035 68.4374 65.362 68.0845 65.5557 67.8562C65.7287 67.6556 66.0193 67.621 66.2338 67.7663C66.8841 68.2229 68.3232 69.0601 69.9144 68.977C72.0315 68.8594 72.9724 67.8216 73.3253 67.2612C73.4498 67.0606 73.6989 66.9707 73.9272 67.0468C74.2385 67.1575 74.37 67.5241 74.197 67.8078C73.7196 68.5688 72.5366 69.8557 69.9767 70.001Z" fill="#A9B9E3"/>
<path d="M91.3208 116.189L82.1745 119.378C82.1745 119.378 74.8754 126.885 73.5402 132.434C72.4886 136.806 72.5093 138.91 72.5093 138.91C72.5093 138.91 74.7717 138.806 76.8265 139.422C78.8813 140.037 81.3512 141.373 81.3512 141.373L81.7594 138.598C81.7594 138.598 82.2714 144.458 82.7903 151.55C83.3022 158.641 84.5407 161.416 84.5407 161.416C84.5407 161.416 90.2969 164.294 100.882 164.086C111.468 163.879 116.712 161.208 116.712 161.208C116.712 161.208 117.84 155.556 117.328 148.568C116.816 141.58 116.608 137.464 116.608 137.464C116.608 137.464 117.494 136.066 119.279 134.994C121.333 133.762 122.773 133.762 122.773 133.762C122.773 133.762 122.876 131.431 121.23 127.321C119.583 123.211 116.843 119.579 116.843 119.579L116.705 116.39L113.315 115.054L106.735 113.207L91.3208 116.189Z" fill="#D0D9F0"/>
<path d="M93.8457 112.149C93.8457 112.149 94.0463 113.297 93.5067 114.508C92.9671 115.719 91.0091 116.528 91.0091 116.535C90.7739 116.632 93.5275 119.856 93.7212 120.022C96.0527 122.042 99.2629 123.101 102.335 122.603C103.663 122.388 105.51 121.849 106.334 120.728C107.261 119.462 107.15 117.49 106.527 116.127C105.856 114.646 104.5 113.768 104.5 113.768L103.961 110.122L93.8457 112.149Z" fill="#BAC5E0"/>
<path d="M71.658 65.594C71.4781 65.594 71.2982 65.5732 71.1529 65.5524C70.973 65.5248 70.8554 65.3518 70.8969 65.1719C70.9384 65.0197 71.0837 64.9159 71.2428 64.9436C71.5403 64.9851 71.8863 64.999 72.0592 64.9159L72.0731 64.909C72.2668 64.8052 72.2945 64.6254 72.3014 64.5493C72.3083 64.3832 72.2253 64.2379 72.0869 64.148C71.7617 63.9473 71.2498 63.5668 70.6617 62.8542C69.8522 61.8787 69.8522 60.7302 69.9145 60.1491C69.9352 59.9484 70.1359 59.81 70.3365 59.8654L70.5787 59.9277L70.2812 59.8516C70.4472 59.8931 70.551 60.0522 70.5302 60.2182C70.4749 60.6956 70.468 61.6711 71.1321 62.4668C71.651 63.0894 72.0938 63.4354 72.3775 63.6153C72.7165 63.8297 72.931 64.1964 72.9171 64.5977C72.8964 64.9713 72.6957 65.2965 72.3637 65.4694L72.336 65.4833C72.1423 65.5594 71.9001 65.594 71.658 65.594Z" fill="#A9B9E3"/>
<path d="M53.4487 63.8225C52.909 63.096 51.8712 62.93 51.1309 63.4489C50.9165 63.5941 50.6328 63.6772 50.4529 63.5596C50.273 63.435 50.3422 63.0407 50.6812 62.8054C51.7605 62.0444 53.2895 62.2935 54.0782 63.352C54.3204 63.6772 54.265 64.0784 54.0575 64.1407C53.8499 64.1961 53.6078 64.0231 53.4487 63.8225Z" fill="#A9B9E3"/>
<path d="M107.047 110.225C104.48 114.134 98.7236 114.335 93.8876 112.176C93.3202 111.92 92.7875 111.595 92.2894 111.208C90.3453 109.706 88.9131 107.368 87.9791 105.465C87.1143 103.701 86.6923 102.304 86.6923 102.304L85.0457 96.9555L91.8327 86.3701L103.553 86.9859C103.553 86.9859 104.376 86.4739 107.462 93.773C110.541 101.079 110.07 105.631 107.047 110.225Z" fill="#CCD4E8"/>
<path d="M91.0091 84.4261C91.0091 84.4261 91.7286 90.5905 96.2533 90.7981C100.778 91.0056 102.618 89.8018 105.095 91.8289C107.358 93.6762 108.285 97.0732 108.693 100.775C109.101 104.476 108.485 107.762 106.846 109.817C105.206 111.872 103.94 112.827 103.94 112.827C103.94 112.827 103.76 113.83 104.991 114.653C106.223 115.477 109.821 115.781 113.522 117.843C117.223 119.897 118.835 121.648 118.835 121.648C118.835 121.648 122.571 121.648 123.395 117.434C124.107 113.768 122.571 111.166 120.517 110.135C118.462 109.105 117.95 109.312 117.95 109.312C117.95 109.312 118.981 106.538 117.639 103.763C116.033 100.422 113.114 101.397 112.09 97.3915C111.467 94.97 110.035 86.0866 104.175 82.0738C99.2006 78.6699 93.9979 79.0919 92.0468 80.6347C90.082 82.1637 91.0091 84.4261 91.0091 84.4261Z" fill="#BFCBEA"/>
<path d="M123.388 117.421C122.565 121.634 118.76 122.457 118.76 122.457C118.76 122.457 117.217 119.891 113.515 117.829C109.814 115.774 106.216 115.463 104.985 114.639C103.753 113.816 104.009 112.813 104.009 112.813C104.009 112.813 105.192 111.865 106.839 109.803C107.683 108.745 108.257 107.361 108.562 105.756C108.942 105.957 109.357 106.046 109.779 105.998C111.246 105.832 112.256 104.095 112.035 102.117C111.814 100.138 110.444 98.6644 108.977 98.8235C108.79 98.8443 108.603 98.8927 108.437 98.9619C107.932 95.98 106.977 93.3579 105.089 91.8081C102.619 89.7879 100.772 90.9848 96.2468 90.7773C91.7221 90.5697 91.0025 84.4053 91.0025 84.4053C91.0025 84.4053 90.0754 82.1429 92.0334 80.6001C93.9844 79.0572 99.1941 78.6352 104.162 82.0391C110.022 86.045 111.454 94.9284 112.076 97.3568C113.107 101.363 116.02 100.387 117.625 103.729C118.96 106.503 117.936 109.277 117.936 109.277C117.936 109.277 118.448 109.07 120.503 110.101C122.565 111.152 124.101 113.754 123.388 117.421Z" fill="#7690D3"/>
<path d="M91.8673 82.7934C93.8183 81.2505 99.028 80.8285 103.996 84.2324C109.856 88.2383 111.288 97.1217 111.91 99.5501C112.941 103.556 115.854 102.58 117.459 105.922C117.805 106.649 117.992 107.368 118.082 108.046C118.213 106.981 118.199 105.452 117.459 103.923C115.854 100.581 112.934 101.556 111.91 97.5506C111.288 95.1292 109.856 86.2457 103.996 82.233C99.028 78.8291 93.8183 79.2511 91.8673 80.7939C90.2899 82.0393 90.5874 83.7481 90.7604 84.3639C90.9264 83.8242 91.2585 83.2777 91.8673 82.7934Z" fill="#ADBCE5"/>
<path d="M117.307 111.367C117.307 111.367 118.282 111.263 120.337 112.294C121.832 113.041 123.049 114.619 123.333 116.84C123.713 113.567 122.254 111.249 120.337 110.295C119.161 109.707 118.033 109.423 117.674 109.368C117.611 110.551 117.307 111.367 117.307 111.367Z" fill="#ADBCE5"/>
<path d="M93.8871 112.176C93.8871 112.176 92.2405 111.146 90.3933 109.194C88.546 107.243 86.8994 103.438 86.8994 103.438C86.8994 103.438 87.4321 100.2 91.5279 95.6272C95.0218 91.7182 92.5588 87.5048 92.5588 87.5048C92.5588 87.5048 92.455 82.1568 88.7536 81.7486C85.0522 81.3404 80.8388 83.1877 78.0644 91.2063C75.5599 98.4431 78.8324 104.262 79.4966 105.32C78.9984 105.472 78.5072 105.714 78.0506 105.922C77.4279 106.206 76.8329 106.635 76.2864 107.05C75.2071 107.88 74.2523 108.918 73.6227 110.128C72.412 112.46 72.4189 115.269 74.2177 117.289C75.0203 118.196 76.0235 118.86 77.1166 119.358C76.653 119.586 76.0235 120.07 75.3939 121.115C74.1624 123.17 75.2901 124.817 75.2901 124.817L82.5892 122.146C82.5892 122.146 83.9244 120.299 87.0101 118.652C90.0958 117.006 92.7663 116.085 93.6934 114.847C94.6067 113.615 93.8871 112.176 93.8871 112.176ZM74.2869 116.549C73.3667 115.221 73.1592 113.567 73.5466 112.017C73.8234 110.903 74.3768 109.907 75.0964 109.035C74.6882 109.741 74.3561 110.571 74.1554 111.568C73.1246 116.604 77.8569 119.171 77.8569 119.171C77.8569 119.171 77.7116 119.157 77.4764 119.226C76.2794 118.507 75.0825 117.697 74.2869 116.549Z" fill="#7690D3"/>
<path d="M78.4939 120.16C78.7291 120.098 78.8744 120.105 78.8744 120.105C78.8744 120.105 78.1203 119.697 77.2831 118.887C76.4183 118.334 75.595 117.704 74.9585 116.909C75.0623 117.109 75.173 117.303 75.3044 117.49C75.7265 118.106 76.2661 118.618 76.8611 119.074C77.0894 119.199 77.3246 119.316 77.5668 119.427C77.5253 119.448 77.4838 119.469 77.4423 119.489C77.7882 119.725 78.141 119.946 78.4939 120.16Z" fill="#ADBCE5"/>
<path d="M73.8237 113.83C73.796 113.249 73.8583 112.661 74.0036 112.086C74.2803 110.973 74.8338 109.976 75.5534 109.105C75.2835 109.568 75.0483 110.094 74.8615 110.682C75.4842 109.637 76.349 108.731 77.3107 107.991C77.8572 107.576 78.4453 107.147 79.0749 106.863C79.5315 106.655 80.0227 106.413 80.5209 106.261C79.8636 105.202 76.5842 99.384 79.0887 92.1472C81.8631 84.1286 86.0765 82.2813 89.7779 82.6895C90.8295 82.8071 91.5836 83.3191 92.1371 83.9902C91.5836 82.9178 90.6842 81.9769 89.2106 81.8109C85.5091 81.4027 81.2957 83.2499 78.5214 91.2685C76.0169 98.5053 79.2894 104.324 79.9535 105.382C79.4554 105.535 78.9642 105.777 78.5076 105.984C77.8849 106.268 77.2899 106.697 76.7433 107.112C75.664 107.942 74.7093 108.98 74.0797 110.191C72.9243 112.419 72.8828 115.082 74.4533 117.082C73.9206 116.078 73.7269 114.951 73.8237 113.83Z" fill="#ADBCE5"/>
<path d="M74.6677 123.952C74.6677 123.952 76.6741 122.049 78.1616 121.226C79.6491 120.403 82.8385 120.866 83.8694 120.714C84.9003 120.562 84.6374 121.122 84.4367 121.433C84.2292 121.745 82.9977 122.257 82.9977 122.257L74.6677 123.952Z" fill="#BAC5E0"/>
<path d="M71.8031 132.233C71.8031 132.233 76.0027 128.698 79.4966 127.805C82.9904 126.913 89.2932 127.12 89.7775 126.643C90.2549 126.166 89.6392 125.204 87.3076 125.204C84.9761 125.204 84.4987 125.204 84.4987 125.204C84.4987 125.204 86.9409 124.858 88.5945 124.983C90.6493 125.135 90.8568 125.391 91.0644 124.983C91.2719 124.574 90.8914 123.855 89.7291 123.647C88.5668 123.44 88.29 123.44 88.29 123.44C88.29 123.44 89.4385 122.872 88.4077 122.603C87.3768 122.326 85.9377 122.125 84.4364 122.056C82.9282 121.987 80.0847 121.592 76.314 123.032C74.5429 123.71 72.8202 125.453 71.1736 126.525C69.3194 127.729 67.6382 128.227 67.6382 128.227L71.8031 132.233Z" fill="#CCD4E8"/>
<path d="M67.6385 128.22C67.6385 128.22 69.1675 128.421 70.399 129.701C71.6306 130.988 71.7966 132.226 71.7966 132.226C71.7966 132.226 69.2298 134.371 65.473 137.311C60.2703 141.386 52.6876 147.509 40.9606 150.111C21.395 154.442 26.3141 132.69 28.9362 119.427C31.5583 106.171 38.4976 89.3659 45.2778 88.1275C49.5258 87.3526 54.6801 90.1339 52.0649 107.555C49.4428 124.976 46.5162 132.531 46.5162 132.531C46.5162 132.531 50.8334 130.524 57.1569 129.293C63.4805 128.061 67.6385 128.22 67.6385 128.22Z" fill="#A3B5E2"/>
<path d="M95.2987 100.795C95.527 101.459 95.3471 102.117 94.8974 102.276C94.4477 102.435 93.8942 102.02 93.6659 101.363C93.4376 100.698 93.6175 100.041 94.0672 99.882C94.5169 99.7229 95.0704 100.131 95.2987 100.795Z" fill="#7690D3"/>
<path d="M105.676 97.9519C105.905 98.6161 105.725 99.2733 105.275 99.4325C104.825 99.5916 104.272 99.1765 104.044 98.5192C103.815 97.855 103.995 97.1978 104.445 97.0387C104.895 96.8795 105.448 97.2946 105.676 97.9519Z" fill="#7690D3"/>
<path d="M94.7658 97.8826L92.0468 99.2732C91.7285 99.4323 91.3411 99.3078 91.175 98.9895C91.0159 98.6713 91.1404 98.2838 91.4587 98.1178L94.1777 96.7272C94.4959 96.568 94.8834 96.6926 95.0494 97.0108C95.2086 97.3291 95.084 97.7234 94.7658 97.8826Z" fill="#A9B9E3"/>
<path d="M105.338 95.6895L102.868 95.6964C102.515 95.6964 102.224 95.4059 102.217 95.053C102.217 94.7002 102.508 94.4096 102.861 94.4027L105.331 94.3958C105.683 94.3958 105.974 94.6863 105.981 95.0392C105.981 95.3989 105.69 95.6895 105.338 95.6895Z" fill="#A9B9E3"/>
<path d="M102.058 107.942C100.48 108.385 98.9238 107.887 98.1835 107.582C97.9414 107.486 97.8376 107.195 97.9621 106.967C98.0659 106.766 98.308 106.683 98.5156 106.766C99.1452 107.022 100.508 107.465 101.823 107.091C103.573 106.6 104.161 105.555 104.355 105.023C104.424 104.829 104.618 104.711 104.818 104.732C105.102 104.767 105.282 105.05 105.185 105.313C104.915 106.053 104.168 107.354 102.058 107.942Z" fill="#A9B9E3"/>
<path d="M102.909 103.929C102.757 103.964 102.604 103.978 102.48 103.992C102.328 104.006 102.196 103.874 102.196 103.722C102.203 103.584 102.307 103.473 102.438 103.466C102.694 103.445 102.992 103.39 103.116 103.293L103.13 103.286C103.276 103.162 103.262 103.002 103.255 102.94C103.227 102.802 103.137 102.691 102.999 102.643C102.694 102.539 102.189 102.311 101.567 101.826C100.709 101.162 100.494 100.2 100.446 99.7023C100.425 99.5293 100.57 99.3771 100.743 99.384L100.958 99.3909L100.695 99.384C100.84 99.3909 100.958 99.5016 100.972 99.64C101.013 100.048 101.193 100.865 101.892 101.404C102.445 101.833 102.874 102.034 103.144 102.131C103.462 102.248 103.718 102.511 103.774 102.85C103.829 103.168 103.718 103.473 103.469 103.68L103.448 103.694C103.31 103.819 103.109 103.888 102.909 103.929Z" fill="#A9B9E3"/>
<path opacity="0.28" d="M108.562 105.77C107.621 105.279 106.888 104.13 106.728 102.719C106.535 100.996 107.275 99.4533 108.444 98.976C108.541 99.564 108.624 100.159 108.693 100.768C108.887 102.567 108.846 104.262 108.562 105.77Z" fill="#8CA2DA"/>
<path d="M85.0457 103.134C85.0457 103.134 81.96 92.2371 87.6125 87.7123C93.2649 83.1876 100.356 84.7304 102.93 87.0966C105.497 89.4627 107.144 94.3957 107.144 94.3957C107.144 94.3957 105.808 83.8449 97.5821 83.326C89.3559 82.814 84.4368 85.5053 83.2607 89.8363C82.1676 93.8768 81.7525 95.5926 82.299 99.5638C82.9148 104.019 83.4613 104.704 83.4613 104.704L85.0457 103.134Z" fill="#B4C2E7"/>
<path d="M84.9971 103.189L85.0524 103.134C85.0524 103.134 84.8518 102.428 84.6511 101.307C84.7618 102.082 84.8933 102.726 84.9971 103.189Z" fill="#C5CEE5"/>
<path d="M82.444 100.394C81.8974 96.423 82.3056 94.7072 83.4057 90.6667C84.5818 86.3357 89.5078 83.6444 97.7271 84.1564C104.493 84.5784 106.597 91.7945 107.129 94.3405C107.143 94.382 107.15 94.4027 107.15 94.4027C107.15 94.4027 105.815 83.852 97.5887 83.3331C89.3625 82.8211 84.4434 85.5124 83.2673 89.8434C82.1742 93.8839 81.759 95.5997 82.3056 99.5709C82.4094 100.311 82.5062 100.948 82.6031 101.494C82.5547 101.155 82.4993 100.789 82.444 100.394Z" fill="#C5CEE5"/>
<path d="M88.3873 104.144C89.6534 105.701 89.7157 108.067 88.415 109.125C87.1143 110.184 85.0318 109.776 83.7657 108.219C82.4997 106.662 82.5342 104.538 83.8349 103.487C85.1425 102.421 87.1212 102.587 88.3873 104.144Z" fill="#CCD4E8"/>
<path d="M87.1486 105.362C86.5675 104.857 85.6611 104.912 85.1422 105.479C84.99 105.638 84.7687 105.763 84.5957 105.694C84.4227 105.625 84.4089 105.279 84.6441 105.023C85.4052 104.185 86.7335 104.109 87.5845 104.85C87.8474 105.078 87.8751 105.424 87.709 105.514C87.5499 105.604 87.3147 105.507 87.1486 105.362Z" fill="#A9B9E3"/>
<path opacity="0.28" d="M93.223 110.841C92.9255 111.014 92.6142 111.139 92.289 111.215C90.3449 109.713 88.9128 107.375 87.9788 105.472C88.2832 104.912 88.7329 104.428 89.321 104.089C91.0852 103.072 93.3891 103.756 94.4614 105.618C95.5407 107.486 94.9803 109.817 93.223 110.841Z" fill="#8CA2DA"/>
<path d="M86.5401 89.2069C86.5401 89.2069 86.8376 94.7832 84.6167 95.0807C82.3959 95.3713 82.4858 92.9429 81.9946 92.3271C81.5103 91.7114 80.2442 92.0642 79.6146 90.5698C78.9781 89.0685 82.1399 86.5017 85.2878 87.3873C88.4289 88.259 86.5401 89.2069 86.5401 89.2069Z" fill="#8CA2DA"/>
<path d="M85.6957 88.0583C86.3668 88.2451 86.8096 88.4388 87.0933 88.6256C87.1763 88.2797 86.8719 87.8162 85.2875 87.3734C82.1396 86.4878 78.9847 89.0615 79.6143 90.5559C79.7319 90.8257 79.8634 91.0402 80.0156 91.2063C79.4414 89.7049 82.5686 87.1797 85.6957 88.0583Z" fill="#CCD4E8"/>
<path d="M86.941 88.8886C86.941 88.8886 92.289 90.4937 93.0985 88.4043C93.9079 86.3149 91.528 85.8237 91.0437 85.2079C90.5594 84.5922 91.2028 83.4437 89.8952 82.4751C88.5876 81.5065 85.3428 83.9626 85.4604 87.2351C85.578 90.5006 86.941 88.8886 86.941 88.8886Z" fill="#8CA2DA"/>
<path d="M85.8063 88.1275C85.6887 84.8619 88.9335 82.3989 90.2411 83.3675C90.4763 83.5405 90.6424 83.7204 90.7669 83.9002C90.6977 83.4367 90.5179 82.9386 89.8952 82.4819C88.5876 81.5133 85.3428 83.9694 85.4604 87.2419C85.5019 88.335 85.6749 88.8816 85.8963 89.1237C85.8547 88.847 85.8202 88.5218 85.8063 88.1275Z" fill="#CCD4E8"/>
<path d="M84.9832 86.7024C85.7373 86.1074 86.8443 86.2388 87.4393 86.9999L87.7506 87.3943C88.3456 88.1484 88.2141 89.2553 87.4531 89.8503C86.699 90.4453 85.592 90.3139 84.997 89.5528L84.6857 89.1585C84.0907 88.4044 84.2221 87.2974 84.9832 86.7024Z" fill="#A3B5E2"/>
<path d="M84.402 87.6087L85.2115 86.9722C85.7442 86.5501 86.526 86.647 86.9411 87.1797L87.8889 88.3835C88.0757 88.6188 88.1588 88.9094 88.1518 89.193C88.4009 88.7641 88.3871 88.2106 88.0619 87.8024L87.1141 86.5986C86.692 86.0658 85.9172 85.969 85.3844 86.391L84.575 87.0275C84.2775 87.2558 84.1183 87.6017 84.1045 87.9477C84.1806 87.8162 84.2844 87.7055 84.402 87.6087Z" fill="#CCD4E8"/>
<path d="M86.1803 133.97C86.1803 133.97 88.4427 134.482 91.0094 134.482C93.5762 134.482 95.8386 133.866 95.8386 133.866C95.8386 133.866 98.2047 146.506 91.5214 146.506C84.8381 146.506 86.1803 133.97 86.1803 133.97Z" fill="#B4C2E7"/>
<path d="M86.1802 136.44C86.1802 136.44 88.5118 136.952 91.1616 136.952C93.8114 136.952 96.1429 136.336 96.1429 136.336C96.1429 136.336 96.1499 136.364 96.1568 136.419C96.0392 134.925 95.8385 133.873 95.8385 133.873C95.8385 133.873 93.5762 134.489 91.0094 134.489C88.4426 134.489 86.1802 133.977 86.1802 133.977C86.1802 133.977 86.0073 135.609 86.0972 137.699C86.1318 136.917 86.1802 136.44 86.1802 136.44Z" fill="#C5CEE5"/>
<path d="M179.414 21.3772C179.414 21.3772 176.944 27.085 176.487 30.9386C176.024 34.7923 175.72 37.4144 176.487 38.0301C177.255 38.6459 177.878 38.9572 177.567 40.9567C177.255 42.9631 176.487 43.4266 176.799 45.7374C177.11 48.0482 181.58 57.4574 185.433 57.7618C189.28 58.0663 190.214 56.6825 190.214 56.6825C190.214 56.6825 190.982 59.3047 191.909 61.1519C192.836 62.9992 213.799 57.2983 213.799 57.2983C213.799 57.2983 212.104 52.3654 211.177 48.2004C210.25 44.0424 179.414 21.3772 179.414 21.3772Z" fill="#CCD4E8"/>
<path d="M178.584 24.6293C178.792 24.394 179.172 24.5532 179.159 24.8645C179.069 26.6218 178.93 31.4925 179.92 35.2907C180.528 37.6223 181.532 40.4036 182.403 42.6175C182.805 43.6484 184.292 43.5446 184.541 42.4653C185.012 40.4658 185.911 38.4733 187.627 38.3695C191.121 38.1619 192.456 41.0401 192.152 44.7415C192.041 46.0353 193.466 51.6047 199.451 52.8639C205.311 54.0954 212.506 53.3758 214.969 47.2114C217.439 41.047 218.456 20.6788 207.262 14.4244C197.7 9.07637 184.984 9.12479 175.395 19.0529C166.76 27.9986 176.938 28.7181 176.938 28.7181C176.938 28.7181 177.36 27.0162 177.761 26.0476C178.052 25.3419 178.342 24.906 178.584 24.6293Z" fill="#7690D3"/>
<path d="M178.384 25.7569C178.141 26.0267 177.851 26.4626 177.56 27.1683C177.484 27.3482 177.408 27.5626 177.332 27.7771C177.63 27.8186 177.816 27.8325 177.816 27.8325C177.816 27.8325 178.107 26.6563 178.439 25.7015C178.418 25.7223 178.397 25.7431 178.384 25.7569Z" fill="#A7B8E3"/>
<path d="M184.679 42.4031C185.025 42.2924 185.316 42.0225 185.419 41.5936C185.516 41.1785 185.634 40.7703 185.772 40.369C185.302 40.9017 184.949 41.6213 184.679 42.4031Z" fill="#A7B8E3"/>
<path d="M208.14 13.5526C198.579 8.20454 185.863 8.25297 176.273 18.1811C174.502 20.0145 173.527 21.502 173.084 22.7058C173.61 21.9517 174.295 21.1146 175.194 20.1875C184.776 10.2593 197.5 10.2178 207.061 15.559C218.234 21.8064 217.238 42.0916 214.789 48.3044C215.204 47.7233 215.564 47.0729 215.854 46.3396C218.317 40.1752 219.334 19.8069 208.14 13.5526Z" fill="#A7B8E3"/>
<path d="M257.387 152.747C236.859 172.652 204.183 182.967 162.09 184.738C162.084 184.738 162.077 184.738 162.07 184.738C161.945 181.064 161.682 172.368 161.696 162.412C161.703 154.027 161.911 144.756 162.547 136.848C164.194 116.494 156.95 102.885 165.384 87.671C173.811 72.4571 179.2 70.8589 185.78 66.7424C192.359 62.6328 194.622 62.017 194.622 62.017L200.786 60.1698C200.786 60.1698 209.012 59.9622 218.463 60.1698C227.914 60.3773 241.28 77.8467 249.506 99.8476C255.062 114.695 256.798 138.82 257.387 152.747Z" fill="#C4CFEC"/>
<path d="M255.366 152.082C255.373 152.11 255.38 152.138 255.38 152.158C256.03 151.709 256.708 151.245 257.428 150.768C256.84 136.841 254.958 112.847 249.409 98.0001C241.183 76.006 227.824 58.5298 218.366 58.3222C208.908 58.1147 200.689 58.3222 200.689 58.3222L199.174 58.7788C200.8 58.7443 208.182 58.6059 216.519 58.7858C225.976 58.9933 239.336 76.4627 247.562 98.4636C253.111 113.311 254.896 138.045 255.477 151.972C255.435 152.006 255.401 152.041 255.366 152.082Z" fill="#DAE1F3"/>
<path d="M185.78 66.7491C185.78 66.7491 193.182 56.6757 204.487 54.4133C215.792 52.1509 214.153 52.3585 214.768 53.59C215.384 54.8215 219.494 59.7544 218.47 60.1695C217.446 60.5847 211.274 59.962 203.463 61.6086C195.645 63.2552 185.78 66.7491 185.78 66.7491Z" fill="#D0D9F0"/>
<path d="M115.515 99.3772C114.733 98.713 113.972 98.028 113.453 97.1355C112.892 96.1531 112.63 95.0531 112.201 94.0153C112.187 93.9807 112.131 93.9945 112.145 94.0291C112.844 95.8902 112.823 97.9312 114.304 99.4187C115.688 100.809 118.137 101.951 118.199 104.158C118.199 104.22 118.282 104.213 118.289 104.158C118.531 102.082 116.947 100.595 115.515 99.3772Z" fill="#ADBCE5"/>
<path d="M149.907 64.5906L151.754 69.0115L163.266 65.7183L161.212 61.4011L149.907 64.5906Z" fill="#E8ECF5"/>
<path d="M149.907 64.5906L149.547 66.6454L150.627 66.3341L149.907 64.5906Z" fill="#DBE0EF"/>
<path d="M170.545 69.1569C170.026 69.3367 169.708 69.2745 169.417 69.226C169.154 69.1776 168.926 69.1361 168.525 69.2745C168.123 69.4128 167.971 69.5858 167.791 69.7864C167.598 70.0009 167.383 70.25 166.864 70.4299C166.345 70.6098 166.027 70.5475 165.736 70.4991C165.474 70.4506 165.245 70.4091 164.844 70.5475C164.443 70.6859 164.291 70.8588 164.111 71.0595C163.917 71.2739 163.702 71.523 163.184 71.7029C162.665 71.8828 162.346 71.8205 162.056 71.7721C161.793 71.7236 161.565 71.6821 161.163 71.8205C160.762 71.9589 160.61 72.1318 160.43 72.3325C160.236 72.5469 160.022 72.796 159.503 72.9759C158.984 73.1558 158.666 73.0935 158.375 73.0451C158.112 72.9967 157.884 72.9551 157.483 73.0935C157.081 73.2319 156.929 73.4048 156.749 73.6055C156.556 73.82 156.341 74.069 155.822 74.2489C155.303 74.4288 154.985 74.3665 154.694 74.3181C154.432 74.2697 154.203 74.2282 153.802 74.3665C153.401 74.5049 153.249 74.6779 153.069 74.8785C152.875 75.093 152.66 75.342 152.142 75.5219C151.623 75.7018 151.304 75.6395 151.014 75.5911C150.751 75.5427 150.523 75.5012 150.121 75.6395C149.72 75.7779 149.568 75.9509 149.388 76.1515C149.194 76.366 148.98 76.6151 148.461 76.7949C147.942 76.9748 147.624 76.9126 147.333 76.8641C147.119 76.8226 146.925 76.788 146.641 76.8572C146.524 76.8849 146.406 76.8226 146.371 76.7119C146.33 76.5874 146.406 76.4421 146.538 76.4144C146.918 76.3245 147.181 76.3729 147.423 76.4144C147.686 76.4628 147.914 76.5044 148.316 76.366C148.717 76.2276 148.869 76.0546 149.049 75.854C149.243 75.6395 149.457 75.3905 149.976 75.2106C150.495 75.0307 150.813 75.093 151.104 75.1414C151.367 75.1898 151.595 75.2313 151.996 75.093C152.398 74.9546 152.55 74.7816 152.73 74.581C152.923 74.3665 153.138 74.1175 153.657 73.9376C154.176 73.7577 154.494 73.82 154.784 73.8684C155.047 73.9168 155.276 73.9583 155.677 73.82C156.078 73.6816 156.23 73.5086 156.41 73.308C156.604 73.0935 156.818 72.8444 157.337 72.6646C157.856 72.4847 158.175 72.5469 158.465 72.5954C158.728 72.6438 158.956 72.6853 159.358 72.5469C159.759 72.4086 159.911 72.2356 160.091 72.035C160.285 71.8205 160.499 71.5714 161.018 71.3915C161.537 71.2117 161.855 71.2739 162.146 71.3224C162.409 71.3708 162.637 71.4123 163.038 71.2739C163.44 71.1356 163.592 70.9626 163.772 70.762C163.965 70.5475 164.18 70.2984 164.699 70.1185C165.218 69.9387 165.536 70.0009 165.826 70.0493C166.089 70.0978 166.318 70.1393 166.719 70.0009C167.12 69.8625 167.272 69.6896 167.452 69.4889C167.646 69.2745 167.86 69.0254 168.379 68.8455C168.898 68.6656 169.217 68.7279 169.507 68.7763C169.77 68.8248 169.998 68.8663 170.4 68.7279C170.801 68.5895 170.953 68.4166 171.133 68.2159C171.292 68.0361 171.472 67.8354 171.825 67.6694C171.949 67.614 172.095 67.6763 172.136 67.8008C172.178 67.9115 172.122 68.0361 172.012 68.0845C171.749 68.209 171.617 68.3543 171.472 68.5204C171.278 68.7348 171.064 68.977 170.545 69.1569Z" fill="#B0BFE5"/>
<path d="M172.212 72.9481C171.693 73.128 171.375 73.0657 171.084 73.0173C170.821 72.9689 170.593 72.9274 170.192 73.0657C169.791 73.2041 169.638 73.3771 169.459 73.5777C169.265 73.7922 169.05 74.0412 168.531 74.2211C168.013 74.401 167.694 74.3387 167.404 74.2903C167.141 74.2419 166.912 74.2004 166.511 74.3387C166.11 74.4771 165.958 74.6501 165.778 74.8507C165.584 75.0652 165.37 75.3143 164.851 75.4941C164.332 75.674 164.014 75.6118 163.723 75.5633C163.46 75.5149 163.232 75.4734 162.831 75.6118C162.429 75.7501 162.277 75.9231 162.097 76.1237C161.903 76.3382 161.689 76.5873 161.17 76.7672C160.651 76.947 160.333 76.8848 160.042 76.8363C159.779 76.7879 159.551 76.7464 159.15 76.8848C158.749 77.0231 158.596 77.1961 158.417 77.3967C158.223 77.6112 158.008 77.8603 157.489 78.0402C156.971 78.2201 156.652 78.1578 156.362 78.1094C156.099 78.0609 155.871 78.0194 155.469 78.1578C155.068 78.2962 154.916 78.4691 154.736 78.6698C154.542 78.8842 154.328 79.1333 153.809 79.3132C153.29 79.4931 152.972 79.4308 152.681 79.3824C152.418 79.3339 152.19 79.2924 151.789 79.4308C151.387 79.5692 151.235 79.7421 151.055 79.9428C150.861 80.1572 150.647 80.4063 150.128 80.5862C149.609 80.7661 149.291 80.7038 149 80.6554C148.786 80.6139 148.592 80.5793 148.309 80.6485C148.191 80.6761 148.073 80.6139 148.039 80.5032C147.997 80.3786 148.073 80.2334 148.205 80.2057C148.585 80.1157 148.848 80.1642 149.09 80.2057C149.353 80.2541 149.582 80.2956 149.983 80.1572C150.384 80.0189 150.536 79.8459 150.716 79.6453C150.91 79.4308 151.124 79.1817 151.643 79.0018C152.162 78.822 152.48 78.8842 152.771 78.9327C153.034 78.9811 153.262 79.0226 153.663 78.8842C154.065 78.7459 154.217 78.5729 154.397 78.3723C154.591 78.1578 154.805 77.9087 155.324 77.7288C155.843 77.549 156.161 77.6112 156.452 77.6596C156.715 77.7081 156.943 77.7496 157.344 77.6112C157.745 77.4729 157.898 77.2999 158.078 77.0992C158.271 76.8848 158.486 76.6357 159.005 76.4558C159.523 76.2759 159.842 76.3382 160.132 76.3866C160.395 76.4351 160.624 76.4766 161.025 76.3382C161.426 76.1998 161.578 76.0269 161.758 75.8262C161.952 75.6118 162.166 75.3627 162.685 75.1828C163.204 75.0029 163.522 75.0652 163.813 75.1136C164.076 75.1621 164.304 75.2036 164.705 75.0652C165.107 74.9268 165.259 74.7539 165.439 74.5532C165.633 74.3388 165.847 74.0897 166.366 73.9098C166.885 73.7299 167.203 73.7922 167.494 73.8406C167.757 73.889 167.985 73.9306 168.386 73.7922C168.787 73.6538 168.94 73.4808 169.12 73.2802C169.313 73.0657 169.528 72.8167 170.047 72.6368C170.565 72.4569 170.884 72.5192 171.174 72.5676C171.437 72.616 171.666 72.6575 172.067 72.5192C172.468 72.3808 172.62 72.2078 172.8 72.0072C172.959 71.8273 173.139 71.6267 173.492 71.4606C173.617 71.4053 173.762 71.4676 173.803 71.5921C173.845 71.7028 173.79 71.8273 173.679 71.8757C173.416 72.0003 173.284 72.1456 173.139 72.3116C172.945 72.5261 172.724 72.7682 172.212 72.9481Z" fill="#B0BFE5"/>
<path d="M173.513 76.8434C172.994 77.0233 172.676 76.961 172.385 76.9126C172.122 76.8641 171.894 76.8226 171.493 76.961C171.091 77.0994 170.939 77.2723 170.759 77.473C170.566 77.6874 170.351 77.9365 169.832 78.1164C169.313 78.2963 168.995 78.234 168.704 78.1856C168.442 78.1372 168.213 78.0956 167.812 78.234C167.411 78.3724 167.259 78.5454 167.079 78.746C166.885 78.9605 166.67 79.2095 166.152 79.3894C165.633 79.5693 165.314 79.507 165.024 79.4586C164.761 79.4102 164.533 79.3687 164.131 79.507C163.73 79.6454 163.578 79.8184 163.398 80.019C163.204 80.2335 162.99 80.4825 162.471 80.6624C161.952 80.8423 161.634 80.78 161.343 80.7316C161.08 80.6832 160.852 80.6417 160.451 80.78C160.049 80.9184 159.897 81.0914 159.717 81.292C159.524 81.5065 159.309 81.7556 158.79 81.9354C158.271 82.1153 157.953 82.053 157.662 82.0046C157.4 81.9562 157.171 81.9147 156.77 82.0531C156.369 82.1914 156.217 82.3644 156.037 82.565C155.843 82.7795 155.628 83.0286 155.11 83.2085C154.591 83.3883 154.272 83.3261 153.982 83.2776C153.719 83.2292 153.491 83.1877 153.089 83.3261C152.688 83.4644 152.536 83.6374 152.356 83.838C152.162 84.0525 151.948 84.3016 151.429 84.4815C150.91 84.6613 150.592 84.5991 150.301 84.5507C150.087 84.5091 149.893 84.4745 149.609 84.5437C149.492 84.5714 149.374 84.5091 149.339 84.3984C149.298 84.2739 149.374 84.1286 149.506 84.1009C149.886 84.011 150.149 84.0594 150.391 84.1009C150.654 84.1494 150.882 84.1909 151.284 84.0525C151.685 83.9141 151.837 83.7412 152.017 83.5405C152.211 83.3261 152.425 83.077 152.944 82.8971C153.463 82.7172 153.781 82.7795 154.072 82.8279C154.335 82.8764 154.563 82.9179 154.964 82.7795C155.366 82.6411 155.518 82.4682 155.698 82.2675C155.891 82.0531 156.106 81.804 156.625 81.6241C157.144 81.4442 157.462 81.5065 157.752 81.5549C158.015 81.6033 158.244 81.6449 158.645 81.5065C159.046 81.3681 159.198 81.1952 159.378 80.9945C159.572 80.78 159.786 80.531 160.305 80.3511C160.824 80.1712 161.143 80.2335 161.433 80.2819C161.696 80.3303 161.924 80.3718 162.326 80.2335C162.727 80.0951 162.879 79.9221 163.059 79.7215C163.253 79.507 163.467 79.258 163.986 79.0781C164.505 78.8982 164.823 78.9605 165.114 79.0089C165.377 79.0573 165.605 79.0988 166.006 78.9605C166.408 78.8221 166.56 78.6491 166.74 78.4485C166.933 78.234 167.148 77.9849 167.667 77.8051C168.186 77.6252 168.504 77.6874 168.794 77.7359C169.057 77.7843 169.286 77.8258 169.687 77.6875C170.088 77.5491 170.24 77.3761 170.42 77.1755C170.614 76.961 170.828 76.7119 171.347 76.532C171.866 76.3522 172.185 76.4144 172.475 76.4629C172.738 76.5113 172.966 76.5528 173.368 76.4144C173.769 76.2761 173.921 76.1031 174.101 75.9025C174.26 75.7226 174.44 75.5219 174.793 75.3559C174.917 75.3005 175.063 75.3628 175.104 75.4873C175.146 75.598 175.09 75.7226 174.98 75.771C174.717 75.8955 174.585 76.0408 174.44 76.2069C174.246 76.4144 174.025 76.6635 173.513 76.8434Z" fill="#B0BFE5"/>
<path d="M175.277 80.9945C174.758 81.1744 174.44 81.1121 174.149 81.0637C173.886 81.0153 173.658 80.9738 173.257 81.1121C172.856 81.2505 172.703 81.4235 172.523 81.6241C172.33 81.8386 172.115 82.0876 171.596 82.2675C171.077 82.4474 170.759 82.3851 170.469 82.3367C170.206 82.2883 169.977 82.2468 169.576 82.3851C169.175 82.5235 169.023 82.6965 168.843 82.8971C168.649 83.1116 168.435 83.3606 167.916 83.5405C167.397 83.7204 167.079 83.6582 166.788 83.6097C166.525 83.5613 166.297 83.5198 165.896 83.6581C165.494 83.7965 165.342 83.9695 165.162 84.1701C164.968 84.3846 164.754 84.6337 164.235 84.8135C163.716 84.9934 163.398 84.9312 163.107 84.8827C162.844 84.8343 162.616 84.7928 162.215 84.9312C161.814 85.0695 161.661 85.2425 161.481 85.4431C161.288 85.6576 161.073 85.9067 160.554 86.0866C160.035 86.2664 159.717 86.2042 159.427 86.1557C159.164 86.1073 158.935 86.0658 158.534 86.2042C158.133 86.3425 157.981 86.5155 157.801 86.7161C157.607 86.9306 157.393 87.1797 156.874 87.3596C156.355 87.5395 156.037 87.4772 155.746 87.4288C155.483 87.3803 155.255 87.3388 154.854 87.4772C154.452 87.6156 154.3 87.7885 154.12 87.9892C153.926 88.2036 153.712 88.4527 153.193 88.6326C152.674 88.8125 152.356 88.7502 152.065 88.7018C151.851 88.6603 151.657 88.6257 151.373 88.6948C151.256 88.7225 151.138 88.6603 151.104 88.5496C151.062 88.425 151.138 88.2797 151.27 88.2521C151.65 88.1621 151.913 88.2106 152.155 88.2521C152.418 88.3005 152.646 88.342 153.048 88.2036C153.449 88.0653 153.601 87.8923 153.781 87.6917C153.975 87.4772 154.189 87.2281 154.708 87.0482C155.227 86.8684 155.545 86.9306 155.836 86.9791C156.099 87.0275 156.327 87.069 156.728 86.9306C157.13 86.7923 157.282 86.6193 157.462 86.4187C157.656 86.2042 157.87 85.9551 158.389 85.7752C158.908 85.5953 159.226 85.6576 159.517 85.706C159.78 85.7545 160.008 85.796 160.409 85.6576C160.81 85.5192 160.963 85.3463 161.142 85.1456C161.336 84.9312 161.551 84.6821 162.07 84.5022C162.588 84.3223 162.907 84.3846 163.197 84.433C163.46 84.4815 163.688 84.523 164.09 84.3846C164.491 84.2462 164.643 84.0733 164.823 83.8726C165.017 83.6581 165.231 83.4091 165.75 83.2292C166.269 83.0493 166.587 83.1116 166.878 83.16C167.141 83.2084 167.369 83.25 167.77 83.1116C168.172 82.9732 168.324 82.8002 168.504 82.5996C168.698 82.3851 168.912 82.1361 169.431 81.9562C169.95 81.7763 170.268 81.8386 170.559 81.887C170.822 81.9354 171.05 81.9769 171.451 81.8386C171.852 81.7002 172.005 81.5272 172.184 81.3266C172.378 81.1121 172.593 80.8631 173.112 80.6832C173.63 80.5033 173.949 80.5656 174.239 80.614C174.502 80.6624 174.73 80.7039 175.132 80.5656C175.533 80.4272 175.685 80.2542 175.865 80.0536C176.024 79.8737 176.204 79.6731 176.557 79.507C176.682 79.4517 176.827 79.5139 176.868 79.6385C176.91 79.7492 176.854 79.8737 176.744 79.9221C176.481 80.0467 176.349 80.192 176.204 80.358C176.01 80.5725 175.789 80.8215 175.277 80.9945Z" fill="#B0BFE5"/>
<path d="M177.304 84.7789C176.785 84.9588 176.467 84.8965 176.177 84.8481C175.914 84.7997 175.685 84.7582 175.284 84.8965C174.883 85.0349 174.731 85.2079 174.551 85.4085C174.357 85.623 174.143 85.8721 173.624 86.0519C173.105 86.2318 172.787 86.1696 172.496 86.1211C172.233 86.0727 172.005 86.0312 171.604 86.1696C171.202 86.3079 171.05 86.4809 170.87 86.6815C170.676 86.896 170.462 87.1451 169.943 87.325C169.424 87.5048 169.106 87.4426 168.815 87.3941C168.552 87.3457 168.324 87.3042 167.923 87.4426C167.522 87.5809 167.369 87.7539 167.189 87.9545C166.996 88.169 166.781 88.4181 166.262 88.598C165.743 88.7778 165.425 88.7156 165.135 88.6672C164.872 88.6187 164.643 88.5772 164.242 88.7156C163.841 88.854 163.689 89.0269 163.509 89.2276C163.315 89.442 163.101 89.6911 162.582 89.871C162.063 90.0509 161.745 89.9886 161.454 89.9402C161.191 89.8917 160.963 89.8502 160.562 89.9886C160.16 90.127 160.008 90.2999 159.828 90.5006C159.634 90.715 159.42 90.9641 158.901 91.144C158.382 91.3239 158.064 91.2616 157.773 91.2132C157.51 91.1647 157.282 91.1232 156.881 91.2616C156.48 91.4 156.327 91.5729 156.147 91.7736C155.954 91.9881 155.739 92.2371 155.22 92.417C154.701 92.5969 154.383 92.5346 154.093 92.4862C153.878 92.4447 153.684 92.4101 153.401 92.4793C153.283 92.5069 153.166 92.4447 153.131 92.334C153.089 92.2095 153.166 92.0642 153.297 92.0365C153.678 91.9465 153.94 91.995 154.183 92.0365C154.446 92.0849 154.674 92.1264 155.075 91.9881C155.476 91.8497 155.629 91.6767 155.808 91.4761C156.002 91.2616 156.217 91.0125 156.736 90.8327C157.254 90.6528 157.573 90.715 157.863 90.7635C158.126 90.8119 158.354 90.8534 158.756 90.715C159.157 90.5767 159.309 90.4037 159.489 90.2031C159.683 89.9886 159.897 89.7395 160.416 89.5596C160.935 89.3798 161.253 89.442 161.544 89.4905C161.807 89.5389 162.035 89.5804 162.436 89.442C162.838 89.3037 162.99 89.1307 163.17 88.9301C163.364 88.7156 163.578 88.4665 164.097 88.2866C164.616 88.1068 164.934 88.169 165.225 88.2175C165.488 88.2659 165.716 88.3074 166.117 88.169C166.518 88.0306 166.671 87.8577 166.85 87.657C167.044 87.4426 167.259 87.1935 167.778 87.0136C168.296 86.8337 168.615 86.896 168.905 86.9444C169.168 86.9929 169.396 87.0344 169.798 86.896C170.199 86.7576 170.351 86.5847 170.531 86.384C170.725 86.1696 170.939 85.9205 171.458 85.7406C171.977 85.5607 172.295 85.623 172.586 85.6714C172.849 85.7199 173.077 85.7614 173.478 85.623C173.88 85.4846 174.032 85.3117 174.212 85.111C174.406 84.8965 174.62 84.6475 175.139 84.4676C175.658 84.2877 175.976 84.35 176.267 84.3984C176.53 84.4468 176.758 84.4883 177.159 84.35C177.56 84.2116 177.713 84.0387 177.892 83.838C178.052 83.6581 178.231 83.4575 178.584 83.2914C178.709 83.2361 178.854 83.2984 178.896 83.4229C178.937 83.5336 178.882 83.6581 178.771 83.7066C178.508 83.8311 178.377 83.9764 178.231 84.1424C178.038 84.3569 177.823 84.5991 177.304 84.7789Z" fill="#B0BFE5"/>
<path d="M144.877 96.1529C144.877 96.1529 146.614 91.8427 148.426 90.6043C151.353 88.5979 154.134 88.757 153.671 86.7506C153.207 84.7443 150.585 84.7443 147.658 85.5191C144.732 86.2871 143.805 86.1349 143.341 84.5921C142.878 83.0492 141.798 80.8906 141.798 80.8906C141.798 80.8906 140.408 81.5064 138.872 85.36C137.329 89.2136 136.402 93.683 136.402 93.683L144.877 96.1529Z" fill="#CCD4E8"/>
<g opacity="0.28">
<path opacity="0.28" d="M148.205 86.2665C150.453 85.6784 152.515 85.54 153.567 86.4118C152.895 84.7444 150.412 84.7859 147.658 85.5124C145.7 86.0313 144.635 86.1281 144.005 85.6784C144.503 86.903 145.5 86.9791 148.205 86.2665Z" fill="white"/>
<path opacity="0.28" d="M139.412 86.1142C140.657 83.0009 141.798 82.0046 142.193 81.7279C141.958 81.2228 141.791 80.8838 141.791 80.8838C141.791 80.8838 140.401 81.4995 138.865 85.3532C137.322 89.2068 136.395 93.6762 136.395 93.6762L137.066 93.8699C137.371 92.5623 138.201 89.1515 139.412 86.1142Z" fill="white"/>
</g>
<path d="M137.059 90.5905C137.059 90.5905 139.321 90.5905 142.199 92.0295C145.078 93.4686 146.724 95.9385 146.724 95.9385C146.897 96.1945 146.032 98.5053 145.963 98.8651C145.596 100.885 145.513 102.933 146.012 104.926C147.236 109.81 150.37 112.121 153.712 115.463C153.712 115.463 162.339 87.9337 171.188 78.8704C179.615 70.2361 184.97 68.548 191.951 73.9375C199.81 79.9982 192.677 105.555 183.524 118.341C174.682 130.69 165.224 144.036 151.041 140.335C135.599 136.308 132.742 121.219 134.181 106.213C135.62 91.2062 137.059 90.5905 137.059 90.5905Z" fill="#D0D9F0"/>
<path d="M82.8659 66.853C82.7345 66.4656 82.6169 65.9882 82.5131 65.4347C82.3609 64.6737 82.2225 63.7743 82.0841 62.7572C81.6759 59.7892 81.2816 55.8664 80.5897 51.7429C79.7595 46.7823 77.0959 42.4997 73.0001 39.4487C69.8452 37.0964 65.4035 36.8819 61.626 37.5599L61.709 37.1725C64.172 35.8095 70.5786 34.5157 76.4178 39.6009C82.4301 44.852 82.2156 58.9036 82.8659 66.853Z" fill="#A7B8E3"/>
<path d="M82.223 135.25C82.1607 135.035 81.884 135.056 81.8079 135.25C81.5657 135.872 81.6833 136.751 81.6833 137.415C81.6833 138.024 81.5865 138.764 81.8286 139.332C81.8356 139.346 81.8494 139.339 81.8563 139.332C82.1469 138.785 82.1123 138.017 82.1676 137.415C82.223 136.744 82.4098 135.893 82.223 135.25Z" fill="#F1F3F9"/>
<path d="M116.801 134.835C116.725 134.074 116.698 133.126 116.324 132.455C116.241 132.309 116.047 132.386 116.033 132.531C115.999 132.911 116.096 133.278 116.158 133.645C116.234 134.101 116.296 134.565 116.345 135.028C116.428 135.81 116.428 136.613 116.628 137.374C116.642 137.422 116.711 137.422 116.718 137.374C116.954 136.564 116.877 135.672 116.801 134.835Z" fill="#F1F3F9"/>
</g>
</svg>
